<?xml version="1.0" encoding="utf-8"?>
<!-- Generator: Adobe Illustrator 22.1.0, SVG Export Plug-In . SVG Version: 6.00 Build 0)  -->
<svg version="1.1" id="レイヤー_1" xmlns="http://www.w3.org/2000/svg" xmlns:xlink="http://www.w3.org/1999/xlink" x="0px"
	 y="0px" viewBox="0 0 219 49" style="enable-background:new 0 0 219 49;" xml:space="preserve">
<g>
	<path style="fill:#FFFFFF;" d="M26.6,6.4c0.9,0,1.8,0.8,2.9,2.3c1,1.6,1.6,2.8,1.6,3.8c0,1-0.2,1.5-0.6,1.5c-0.2,0-0.6-0.1-1.2-0.2
		c-0.6-0.1-1.1-0.2-1.6-0.2c-1.6,0-3.4,1-5.5,3c-2.1,2-3.9,4.4-5.4,7.2c-1.5,2.8-2.2,5.2-2.2,7.3c0,1,0.2,1.7,0.5,2.2
		c0.3,0.5,0.9,0.7,1.7,0.7c2.2,0,4.4-0.3,6.6-1c2.2-0.7,4.1-1.3,5.5-2c1.4-0.7,2.3-1,2.5-1c0.2,0,0.4,0.2,0.6,0.5
		c0.2,0.4,0.3,0.8,0.3,1.3c0,1.1-0.8,2.3-2.5,3.8c-1.7,1.5-3.7,2.7-6.1,3.7c-2.4,1-4.6,1.6-6.5,1.6c-1.9,0-4-1.2-6.1-3.5
		c-2.2-2.4-3.2-4.6-3.2-6.7c0-3,1-6.4,2.9-10.2c1.9-3.8,4.4-7.1,7.4-9.9S23.8,6.4,26.6,6.4z"/>
	<path style="fill:#FFFFFF;" d="M55.1,27.7c0.6,0.5,0.8,1,0.8,1.4s-0.2,1.3-0.6,2.5c-0.4,1.3-0.6,2.3-0.8,3
		c-0.1,0.7-0.2,1.3-0.3,1.7c-0.1,0.4-0.1,0.7-0.2,1c0,0.2-0.1,0.5-0.2,0.9c-0.1,0.3-0.1,0.6-0.2,0.8c0,0.2-0.1,0.4-0.2,0.7
		c-0.1,0.3-0.2,0.5-0.3,0.6s-0.2,0.3-0.3,0.4c-0.2,0.3-0.5,0.4-0.9,0.4c-0.4,0-1-0.4-1.6-1.3c-0.6-0.9-1.1-1.9-1.4-3.2
		c-3,3-5.4,4.5-7.4,4.5c-1.4,0-2.8-0.7-4.4-2.2c-1.6-1.5-2.4-3-2.4-4.5s0.7-3.6,2-6.4c1.4-2.8,3.2-5.3,5.5-7.7
		c2.3-2.4,4.7-3.5,6.9-3.5c1.3,0,2.8,0.8,4.6,2.3c1.7,1.5,2.6,2.9,2.6,4.2C56.5,24.5,56,26,55.1,27.7z M41.4,35.1
		c1.3,0,2.9-0.9,5-2.6c2.1-1.7,3.4-3.9,3.9-6.5c0-0.4,0.3-0.6,0.8-0.7c-0.1-1.8-0.4-2.7-0.9-2.7c-1.3,0-2.7,0.8-4.2,2.4
		s-2.8,3.4-3.8,5.2c-1,1.9-1.5,3.2-1.5,4.1c0,0.3,0,0.4,0.1,0.5C40.8,35.1,41,35.1,41.4,35.1z"/>
	<path style="fill:#FFFFFF;" d="M69.6,25.9c-0.5,1.5-1.1,3.4-1.8,5.7c-0.7,2.3-1.1,3.5-1.1,3.7c0,0.1,0.3,0.2,0.8,0.2
		c0.5,0,1.7-0.4,3.7-1.1c1.9-0.7,3.1-1.1,3.4-1.1c0.8,0,1.2,0.5,1.2,1.6c0,1.1-1.1,2.3-3.2,3.8c-2.1,1.5-4.3,2.2-6.6,2.2
		c-1,0-2.2-0.5-3.6-1.6c-1.4-1.1-2.1-2.2-2.1-3.3c0-0.9,0.5-2.9,1.4-6c1-3,1.6-5.1,2-6.2c-1.2,0.3-2.2,0.5-2.8,0.5
		c-0.6,0-1.3-0.4-2-1.3c-0.7-0.9-1-1.7-1-2.5c0-1,2.4-1.9,7.3-2.5c0.6-2.9,0.9-5.4,0.9-7.6c0-0.9,0.5-1.4,1.4-1.4
		c0.8,0,1.9,0.5,3.1,1.5c1.3,1,1.9,2,1.9,2.9s-0.2,2.3-0.6,4c1.5-0.1,2.7-0.1,3.4-0.1c2.4,0,3.5,0.5,3.5,1.6c0,0.7-0.7,1.3-2.1,1.8
		c-1.4,0.5-3.5,1-6.3,1.6C70.4,23.2,70.1,24.4,69.6,25.9z"/>
	<path style="fill:#FFFFFF;" d="M92.3,41L92.3,41c-0.8,0-1.7-0.6-2.7-1.9c-1-1.3-1.6-2.4-1.6-3.3c0-1,0.9-5.3,2.8-12.9
		c1.8-7.6,2.8-12.4,2.8-14.5c0-1.3,0.5-1.9,1.4-1.9c0.8,0,1.7,0.7,2.7,2.2c1.1,1.5,1.6,2.9,1.6,4.3c0,0.8-0.4,2.9-1.2,6.3
		c2.6-3.4,5-6.3,7.3-8.6c2.3-2.3,3.8-3.5,4.6-3.5c0.8,0,1.7,0.4,2.5,1.1c0.8,0.7,1.3,1.3,1.3,1.8c0,0.5-0.8,1.5-2.4,3
		c-1.6,1.5-3.6,3.4-5.9,5.7c-2.4,2.3-4.2,4.5-5.5,6.5c0,2.4,1.4,4.9,4.2,7.3c0.8,0.7,2,1.5,3.4,2.2c1.4,0.8,2.5,1.4,3.3,2
		c0.8,0.6,1.2,1.1,1.2,1.7c0,1.6-1.1,2.4-3.4,2.4c-2.3,0-4.7-0.9-7.3-2.8c-2.6-1.8-4.6-4.3-5.8-7.3c-0.8,2.3-1.3,4-1.5,5.1
		c-0.2,1.1-0.3,1.8-0.4,2.1c-0.1,0.3-0.1,0.6-0.2,0.8c-0.1,0.2-0.1,0.4-0.2,0.7c-0.1,0.3-0.1,0.4-0.2,0.6c-0.1,0.1-0.1,0.3-0.2,0.4
		C92.6,40.9,92.5,41,92.3,41z"/>
	<path style="fill:#FFFFFF;" d="M131.6,16.7c1.6,0,3.1,0.7,4.3,2.2c1.2,1.5,1.9,3,1.9,4.7c0,2.7-0.4,5.5-1.3,8.4
		c-0.9,2.9-1.8,5.1-2.8,6.7c-1,1.6-2.1,2.4-3.1,2.4s-1.6-0.7-1.6-2.2c0-1.1,0.5-3.4,1.6-6.8c0.8-2.8,1.2-4.9,1.2-6.1
		c0-1.2-0.2-1.8-0.5-1.8c-0.4,0-0.8,0.2-1.2,0.6c-0.4,0.4-0.7,0.8-1,1.1c-0.3,0.3-0.5,0.7-0.9,1.2c-0.3,0.5-0.6,0.9-0.8,1.3
		c-0.2,0.4-0.5,0.9-0.9,1.5c-0.4,0.6-0.7,1.1-0.9,1.5c-0.2,0.4-0.5,0.9-0.8,1.5c-2.9,5.5-5.2,8.2-6.9,8.2c-0.7,0-1.5-0.6-2.5-1.7
		c-1-1.1-1.5-2-1.5-2.5c0-0.3,0.2-1.1,0.7-2.2c0.5-1.1,0.8-2,1-2.6c0.2-0.6,0.4-1.3,0.5-2s0.3-1.4,0.4-2.2c0.1-0.8,0.2-1.4,0.2-1.9
		c0-0.4,0.1-1.1,0.2-2.1c0.3-4.1,0.5-6.3,0.7-6.8c0.2-0.4,0.4-0.7,0.7-0.7c1.2,0,2.3,0.5,3.4,1.5c1.1,1,1.6,1.9,1.6,2.7
		c0,1.9-0.5,4.7-1.5,8.4c2-3.6,3.9-6.5,5.6-8.8C129,17.9,130.5,16.7,131.6,16.7z"/>
	<path style="fill:#FFFFFF;" d="M144.2,22c2.4-3.5,4.8-5.3,7.2-5.3c2.4,0,4.4,0.8,6,2.5c1.6,1.7,2.4,3.7,2.4,6.1
		c0,2.4-0.6,4.8-1.7,7.2c-1.1,2.4-2.7,4.5-4.8,6.1c-2,1.6-4.2,2.4-6.5,2.4c-1.7,0-3.2-0.8-4.5-2.3c-1.3-1.5-1.9-3.4-1.9-5.6
		C140.5,29.2,141.8,25.5,144.2,22z M151.8,31.7c1.3-2.3,1.9-4.4,1.9-6.5c0-2-0.3-3.4-0.8-4.1c-1.3,0.8-2.7,2.4-4,4.9
		c-1.3,2.5-2,4.7-2,6.6c0,1.9,0.2,3.1,0.6,3.6C149.1,35.5,150.6,34,151.8,31.7z"/>
	<path style="fill:#FFFFFF;" d="M189.6,16.7c0.9,0,1.8,0.3,2.9,0.9c1.1,0.6,1.6,1.2,1.6,1.9c0,0.7-0.5,2.9-1.6,6.7
		c-1.1,3.8-2.7,7.2-5,10.2c-2.3,3-4,4.5-5.1,4.5c-0.4,0-1.1-0.3-2-0.9c-0.9-0.6-1.5-1.3-1.9-2.1c-0.7-1.3-1-5.1-1-11.3
		c-1.4,4.4-2.9,7.9-4.6,10.5c-1.7,2.6-3.1,3.9-4.2,3.9c-0.5,0-1.2-0.3-2-0.9c-0.9-0.6-1.5-1.3-1.7-1.9c-0.7-1.7-1.4-4.9-2-9.7
		c-0.6-4.8-0.9-8-0.9-9.8c0-1.3,0.4-1.9,1.3-1.9c1.2,0,2.4,0.7,3.7,2.2c1.3,1.4,1.9,2.6,1.9,3.4c0,4.6,0,8.2,0.1,10.9
		c1.3-1.9,2.4-4.3,3.4-7.2c1-2.9,1.8-5.1,2.5-6.8c0.6-1.7,1.3-2.5,2-2.5c1.4,0,2.7,0.7,4.1,2c1.3,1.3,2,2.7,2,4.1
		c0,0.6-0.1,1.9-0.3,3.9s-0.3,3.5-0.3,4.5c0,1,0.1,1.8,0.2,2.5c1-1,1.9-2.6,2.7-4.6c0.8-2,1.3-3.9,1.7-5.7
		C187.9,19,188.7,16.7,189.6,16.7z"/>
	<path style="fill:#FFFFFF;" d="M207.7,16.8c1.2,0,2.4,0.7,3.5,2.1c1.2,1.4,1.7,2.7,1.7,3.8c0,0.8-0.3,1.1-1,1.1
		c-0.4,0-0.9-0.1-1.7-0.4c-0.7-0.3-1.5-0.4-2.2-0.4c-0.7,0-1.8,0.3-3.3,0.8c-1.4,0.5-2.1,1.2-2.1,2c0,0.3,0.4,0.8,1.3,1.4
		c0.8,0.6,1.8,1.2,2.8,1.8c1,0.6,1.9,1.5,2.8,2.6c0.8,1.1,1.3,2.3,1.3,3.6s-1,2.6-2.8,3.9c-1.9,1.3-4.1,2-6.7,2s-4.7-0.6-6.6-1.7
		c-1.8-1.2-2.7-2.4-2.7-3.6c0-1.2,0.5-1.8,1.5-1.8c0.4,0,0.9,0.2,1.5,0.5c1.6,0.9,3.5,1.4,5.9,1.4c2.3,0,3.5-0.3,3.5-0.9
		c0-0.6-0.4-1.3-1.3-2.1c-0.9-0.8-1.9-1.5-2.9-2.1s-2-1.5-2.9-2.4c-0.9-1-1.3-1.9-1.3-2.8c0-1.7,1.5-3.5,4.6-5.5
		C203.5,17.8,206,16.8,207.7,16.8z"/>
</g>
<g>
</g>
<g>
</g>
<g>
</g>
<g>
</g>
<g>
</g>
<g>
</g>
<g>
</g>
<g>
</g>
<g>
</g>
<g>
</g>
<g>
</g>
<g>
</g>
<g>
</g>
<g>
</g>
<g>
</g>
</svg>
