<svg id="レイヤー_1" data-name="レイヤー 1" xmlns="http://www.w3.org/2000/svg" viewBox="0 0 60.96 60.96"><defs><style>.cls-1{fill:none;}.cls-2{fill:#339eff;}.cls-3{fill:#31c4f7;}</style></defs><title>icon</title><polygon class="cls-1" points="17.52 37.53 17.34 37.39 16.03 46.64 17.34 37.46 17.52 37.53"/><polygon class="cls-2" points="17.34 37.46 16.03 46.64 23.16 41.89 17.52 37.53 17.34 37.46"/><polygon class="cls-3" points="56 15.32 29.05 26.06 27.42 26.71 18.1 30.42 16.07 31.23 11.65 32.99 4.28 27.29 12.65 25.36 14.89 24.84 24.77 22.55 26.55 22.14 56 15.32"/><polygon class="cls-2" points="11.65 32.99 16.03 46.64 17.34 37.39 56 15.32 11.65 32.99"/><polygon class="cls-3" points="17.34 37.39 17.52 37.53 23.16 41.89 33.27 49.71 56 15.32 17.34 37.39"/></svg>