<?xml version="1.0" encoding="utf-8"?>
<!-- Generator: Adobe Illustrator 22.1.0, SVG Export Plug-In . SVG Version: 6.00 Build 0)  -->
<svg version="1.1" id="レイヤー_1" xmlns="http://www.w3.org/2000/svg" xmlns:xlink="http://www.w3.org/1999/xlink" x="0px"
	 y="0px" viewBox="0 0 61 50" style="enable-background:new 0 0 61 50;" xml:space="preserve">
<style type="text/css">
	.st0{fill:#337CE5;}
	.st1{fill:#339EFF;}
	.st2{fill:#6DD3F7;}
	.st3{fill:#31C4F7;}
</style>
<title>icon</title>
<path class="st0" d="M3.1,39.2c11.2,7.1,24.4,10.5,37.7,9.8l0,0l16.4-16.4c0.2-0.2,0.2-0.4,0-0.6c-0.1-0.1-0.2-0.1-0.3-0.1
	c-13.2,0.5-26.2-3-37.4-9.9L3.1,38.7C3,38.8,3,39,3.1,39.2C3.1,39.1,3.1,39.1,3.1,39.2z"/>
<path class="st1" d="M7,31.3c9.4,8.2,21.4,12.6,33.8,12.5l16.4-16.5c0.2-0.2,0.2-0.4,0-0.6c-0.1-0.1-0.2-0.1-0.3-0.1
	c-12.3-0.4-24.2-5-33.5-13L7,30.9C6.9,31,6.9,31.2,7,31.3C7,31.3,7,31.3,7,31.3z"/>
<path class="st2" d="M13.8,18.7c5.3,10.5,15.3,17.9,26.9,20c0.2,0,0.3,0,0.5-0.1l16.4-16.4c0.2-0.2,0.2-0.4,0-0.6
	c-0.1-0.1-0.1-0.1-0.2-0.1c-3.6-0.8-19.1-4.8-26.5-19.7c-0.1-0.2-0.4-0.3-0.6-0.2c0,0-0.1,0.1-0.1,0.1L13.9,18
	C13.7,18.2,13.7,18.5,13.8,18.7z"/>
<path class="st3" d="M15.6,21.9c5.7,8.8,14.7,14.9,25.1,16.8c0.2,0,0.3,0,0.5-0.1l12.1-12.2c-11-1.1-21.4-5.6-29.8-12.7L15.6,21.9z"
	/>
</svg>
