<svg id="レイヤー_1" data-name="レイヤー 1" xmlns="http://www.w3.org/2000/svg" viewBox="0 0 60.96 60.96"><defs><style>.cls-1{fill:#337ce5;}.cls-2{fill:#339eff;}.cls-3{fill:#6dd3f7;}.cls-4{fill:#31c4f7;}</style></defs><title>icon</title><path class="cls-1" d="M3.13,42.64A64.32,64.32,0,0,0,40.8,52.39a.05.05,0,0,0,0,0L57.16,36a.42.42,0,0,0-.32-.72,66.57,66.57,0,0,1-37.39-9.9L3.09,42.19A.29.29,0,0,0,3.13,42.64Z"/><path class="cls-2" d="M7,34.77A50.93,50.93,0,0,0,40.82,47.31L57.23,30.83a.42.42,0,0,0-.29-.72,54.39,54.39,0,0,1-33.53-13L7,34.35A.29.29,0,0,0,7,34.77Z"/><path class="cls-3" d="M13.77,22.2a37.49,37.49,0,0,0,26.86,20,.52.52,0,0,0,.46-.14L57.46,25.62a.41.41,0,0,0-.21-.7c-3.62-.75-19.07-4.76-26.55-19.69a.42.42,0,0,0-.68-.1L13.89,21.5A.63.63,0,0,0,13.77,22.2Z"/><path class="cls-4" d="M15.57,25.4A37.86,37.86,0,0,0,40.65,42.22a.52.52,0,0,0,.46-.14l12.14-12.2A54.52,54.52,0,0,1,23.43,17.14Z"/></svg>