<?xml version="1.0" encoding="utf-8"?>
<!-- Generator: Adobe Illustrator 22.1.0, SVG Export Plug-In . SVG Version: 6.00 Build 0)  -->
<svg version="1.1" id="レイヤー_1" xmlns="http://www.w3.org/2000/svg" xmlns:xlink="http://www.w3.org/1999/xlink" x="0px"
	 y="0px" viewBox="0 0 61 50" style="enable-background:new 0 0 61 50;" xml:space="preserve">
<style type="text/css">
	.st0{fill:#33ADFF;}
</style>
<title>icon</title>
<path class="st0" d="M49.5,14.7c0,0.4,0,0.9,0,1.3c0,13.1-10,28.2-28.2,28.2c-5.4,0-10.7-1.5-15.2-4.5c0.8,0.1,1.6,0.1,2.4,0.1
	c4.5,0,8.8-1.5,12.3-4.2c-4.2-0.1-8-2.8-9.3-6.9c0.6,0.1,1.2,0.1,1.9,0.2c0.9,0,1.8-0.1,2.6-0.3c-4.6-0.9-8-5-7.9-9.7v-0.1
	c1.4,0.8,2.9,1.2,4.5,1.3c-4.4-2.9-5.7-8.7-3.1-13.3c5,6.2,12.5,10,20.5,10.4c-0.2-0.7-0.2-1.5-0.2-2.3c0-5.5,4.5-9.9,9.9-9.9
	c2.7,0,5.3,1.1,7.2,3.1c2.2-0.4,4.3-1.2,6.3-2.4c-0.7,2.3-2.3,4.2-4.4,5.5c2-0.2,3.9-0.7,5.7-1.5C53.2,11.6,51.5,13.3,49.5,14.7
	L49.5,14.7z"/>
</svg>
