<?xml version="1.0" encoding="utf-8"?>
<!-- Generator: Adobe Illustrator 22.1.0, SVG Export Plug-In . SVG Version: 6.00 Build 0)  -->
<svg version="1.1" id="レイヤー_1" xmlns="http://www.w3.org/2000/svg" xmlns:xlink="http://www.w3.org/1999/xlink" x="0px"
	 y="0px" viewBox="0 0 64 64" style="enable-background:new 0 0 64 64;" xml:space="preserve">
<style type="text/css">
	.st0{fill:#FFA748;}
	.st1{fill:#F7645C;}
	.st2{fill:#22B9FC;enable-background:new    ;}
</style>
<title>icon</title>
<circle class="st0" cx="42.5" cy="39" r="7"/>
<path class="st1" d="M30.5,32h-12c-0.5,0-1,0.4-1,0.9c0,0,0,0.1,0,0.1v12c0,0.5,0.4,1,0.9,1c0,0,0.1,0,0.1,0h12c0.5,0,1-0.4,1-0.9
	c0,0,0-0.1,0-0.1V33c0-0.5-0.4-1-0.9-1C30.6,32,30.5,32,30.5,32z"/>
<path class="st2" d="M25.3,15.6c-0.3-0.5-0.9-0.6-1.4-0.3c-0.1,0.1-0.2,0.2-0.3,0.3l-5.9,9.9c-0.2,0.3-0.2,0.7,0,1
	c0.2,0.3,0.5,0.5,0.9,0.5h11.9c0.4,0,0.7-0.2,0.9-0.5c0.2-0.3,0.2-0.7,0-1L25.3,15.6z"/>
</svg>
