<svg id="レイヤー_1" data-name="レイヤー 1" xmlns="http://www.w3.org/2000/svg" viewBox="0 0 64 64"><defs><style>.cls-1{fill:#ffa748;}.cls-2{fill:#f7645c;}.cls-3{fill:#22b9fc;opacity:0.8;isolation:isolate;}</style></defs><title>icon</title><circle class="cls-1" cx="42.5" cy="39" r="7"/><path class="cls-2" d="M30.5,32h-12a.94.94,0,0,0-1,1V45a.94.94,0,0,0,1,1h12a.94.94,0,0,0,1-1V33A.94.94,0,0,0,30.5,32Z"/><path class="cls-3" d="M25.32,15.62a1,1,0,0,0-1.69,0l-5.93,9.9a.89.89,0,0,0,0,1,1,1,0,0,0,.89.49H30.46a1,1,0,0,0,.89-.49.89.89,0,0,0,0-1Z"/></svg>