<?xml version="1.0" encoding="utf-8"?>
<!-- Generator: Adobe Illustrator 22.1.0, SVG Export Plug-In . SVG Version: 6.00 Build 0)  -->
<svg version="1.1" id="レイヤー_1" xmlns="http://www.w3.org/2000/svg" xmlns:xlink="http://www.w3.org/1999/xlink" x="0px"
	 y="0px" viewBox="0 0 64 64" style="enable-background:new 0 0 64 64;" xml:space="preserve">
<style type="text/css">
	.st0{fill:#22B9FC;enable-background:new    ;}
	.st1{fill:#F7645C;}
	.st2{fill:#FFA748;}
</style>
<title>icon</title>
<path class="st0" d="M31.8,36.7c-5.9,0-10.6-4.7-10.6-10.6s4.7-10.6,10.6-10.6s10.6,4.7,10.6,10.6v0C42.4,31.9,37.6,36.7,31.8,36.7
	C31.8,36.7,31.8,36.7,31.8,36.7z"/>
<path class="st1" d="M26.1,48c-5.9,0-10.6-4.7-10.6-10.6s4.7-10.6,10.6-10.6s10.6,4.7,10.6,10.6c0,0,0,0,0,0
	C36.7,43.2,32,48,26.1,48C26.1,48,26.1,48,26.1,48z"/>
<path class="st2" d="M37.4,48c-5.9,0-10.6-4.7-10.6-10.6s4.7-10.6,10.6-10.6S48,31.5,48,37.4v0C48,43.2,43.3,48,37.4,48
	C37.4,48,37.4,48,37.4,48z"/>
</svg>
