<?xml version="1.0" encoding="utf-8"?>
<!-- Generator: Adobe Illustrator 22.1.0, SVG Export Plug-In . SVG Version: 6.00 Build 0)  -->
<svg version="1.1" id="レイヤー_1" xmlns="http://www.w3.org/2000/svg" xmlns:xlink="http://www.w3.org/1999/xlink" x="0px"
	 y="0px" viewBox="0 0 64 64" style="enable-background:new 0 0 64 64;" xml:space="preserve">
<style type="text/css">
	.st0{fill:#FFA748;}
	.st1{fill:#22B9FC;enable-background:new    ;}
</style>
<title>icon</title>
<circle class="st0" cx="28.3" cy="21.8" r="4.2"/>
<path class="st1" d="M50.3,43.3L39.7,29.6c-0.4-0.5-1.1-0.5-1.5-0.1c-0.1,0-0.1,0.1-0.1,0.1l-8.7,11.3l-6.5-8.1
	c-0.4-0.5-1.1-0.5-1.5-0.1c-0.1,0-0.1,0.1-0.1,0.1l-8.4,10.5c-0.3,0.5-0.2,1.1,0.3,1.5c0.2,0.1,0.4,0.2,0.6,0.2h35.9
	c0.6,0,1.1-0.5,1-1.1C50.5,43.7,50.4,43.5,50.3,43.3z"/>
</svg>
