<?xml version="1.0" encoding="utf-8"?>
<!-- Generator: Adobe Illustrator 22.1.0, SVG Export Plug-In . SVG Version: 6.00 Build 0)  -->
<svg version="1.1" id="レイヤー_1" xmlns="http://www.w3.org/2000/svg" xmlns:xlink="http://www.w3.org/1999/xlink" x="0px"
	 y="0px" viewBox="0 0 64 64" style="enable-background:new 0 0 64 64;" xml:space="preserve">
<style type="text/css">
	.st0{fill:#FFFFFF;}
</style>
<title>icon</title>
<path class="st0" d="M10.8,38.1c-0.1-0.1-0.1-0.2-0.1-0.3L13.3,26c0-0.1,0.1-0.2,0.2-0.3c0.1-0.1,0.2-0.1,0.4-0.1h2
	c0.2,0,0.5,0.1,0.6,0.4l2.8,6.8l1.4-6.7c0-0.1,0.1-0.2,0.2-0.3c0.1-0.1,0.2-0.1,0.4-0.1h2.3c0.1,0,0.2,0,0.3,0.1
	c0.1,0.1,0.1,0.2,0.1,0.3l-2.5,11.7c0,0.1-0.1,0.2-0.2,0.3c-0.1,0.1-0.2,0.1-0.4,0.1h-2c-0.1,0-0.3,0-0.4-0.1
	c-0.1-0.1-0.1-0.2-0.2-0.2l-2.9-6.5L14,37.7c0,0.1-0.1,0.2-0.2,0.3c-0.1,0.1-0.2,0.1-0.3,0.1h-2.3C11,38.2,10.9,38.2,10.8,38.1z"/>
<path class="st0" d="M24.6,38.1c-0.1-0.1-0.1-0.2-0.1-0.3L27,26c0-0.1,0.1-0.2,0.2-0.3c0.1-0.1,0.2-0.1,0.4-0.1h8.5
	c0.1,0,0.2,0,0.3,0.1c0.1,0.1,0.1,0.2,0.1,0.3l-0.4,1.8c0,0.1-0.1,0.2-0.2,0.3c-0.1,0.1-0.2,0.1-0.4,0.1h-5.7l-0.5,2.3h5.3
	c0.1,0,0.2,0,0.3,0.1C35,30.8,35,30.9,35,31l-0.3,1.6c0,0.1-0.1,0.2-0.2,0.3c-0.1,0.1-0.2,0.1-0.4,0.1h-5.3l-0.5,2.3h5.9
	c0.1,0,0.2,0,0.3,0.1c0.1,0.1,0.1,0.2,0.1,0.3l-0.4,1.8c0,0.1-0.1,0.2-0.2,0.3c-0.1,0.1-0.2,0.1-0.3,0.1h-8.7
	C24.8,38.2,24.7,38.1,24.6,38.1z"/>
<path class="st0" d="M38.3,38c-0.1-0.1-0.2-0.3-0.1-0.4L38.6,26c0-0.1,0.1-0.2,0.2-0.3c0.1-0.1,0.2-0.1,0.3-0.1h2.3
	c0.3,0,0.5,0.1,0.5,0.5l-0.3,6.7l2.1-3.9c0.1-0.3,0.4-0.5,0.7-0.5h1.3c0.3,0,0.5,0.2,0.5,0.4c0,0,0,0,0,0l0.4,3.9l2.6-6.8
	c0-0.1,0.1-0.3,0.2-0.3c0.1-0.1,0.3-0.1,0.4-0.1h2.4c0.1,0,0.2,0,0.2,0.1c0.1,0.1,0.1,0.1,0.1,0.2c0,0.1,0,0.1,0,0.2l-4.3,11.6
	c-0.1,0.2-0.2,0.3-0.3,0.4c-0.1,0.1-0.3,0.2-0.5,0.2h-1.9c-0.2,0-0.3,0-0.4-0.2c-0.1-0.1-0.1-0.2-0.2-0.3l-0.9-5l-2.7,5
	c-0.1,0.3-0.5,0.5-0.8,0.5h-1.8C38.6,38.2,38.4,38.1,38.3,38z"/>
</svg>
