<svg id="レイヤー_1" data-name="レイヤー 1" xmlns="http://www.w3.org/2000/svg" viewBox="0 0 533 250"><defs><style>.cls-1{fill:#ffa748;}.cls-2{fill:#f7645c;}.cls-3{fill:#22b9fc;opacity:0.8;isolation:isolate;}</style></defs><title>404</title><path class="cls-1" d="M97,229.86V183.94H19.77l-4.56-28.28L56,21.53H89.42L50.49,153.83H97V89.05l34.37-5.47v70.25h28.89v30.11H131.39v42.88Z"/><path class="cls-2" d="M339.19,147.45c0,57.78-33.46,83.63-73.3,83.63-40.15,0-73.3-25.85-73.3-83.63V100.91c0-57.78,32.85-83.33,73.3-83.33,40.14,0,73.3,25.55,73.3,83.33ZM303.6,100.91c0-38.62-16.12-52.61-37.71-52.61s-37.71,14-37.71,52.61v46.54c0,38.62,15.81,52.91,37.71,52.91s37.71-14.29,37.71-52.91Z"/><path class="cls-3" d="M457.74,229.86V183.94H380.49l-4.56-28.28L416.68,21.53h33.46l-38.93,132.3h46.53V89.05l34.37-5.47v70.25H521v30.11H492.11v42.88Z"/></svg>