<?xml version="1.0" encoding="utf-8"?>
<!-- Generator: Adobe Illustrator 22.1.0, SVG Export Plug-In . SVG Version: 6.00 Build 0)  -->
<svg version="1.1" id="レイヤー_1" xmlns="http://www.w3.org/2000/svg" xmlns:xlink="http://www.w3.org/1999/xlink" x="0px"
	 y="0px" viewBox="0 0 17 130.6" style="enable-background:new 0 0 17 130.6;" xml:space="preserve">
<style type="text/css">
	.st0{fill:#FFA748;}
	.st1{fill:#F7645C;}
</style>
<title>icon</title>
<g>
	<path class="st0" d="M8.6,73.6L8.6,73.6c-4.6,0-8.4-3.8-8.4-8.4V9c0-4.6,3.8-8.4,8.4-8.4l0,0C13.2,0.6,17,4.4,17,9v56.3
		C17,69.9,13.2,73.6,8.6,73.6z"/>
	<path class="st1" d="M8.6,130.6L8.6,130.6c-4.6,0-8.4-3.8-8.4-8.4V66c0-4.6,3.8-8.4,8.4-8.4l0,0c4.6,0,8.4,3.8,8.4,8.4v56.3
		C17,126.9,13.2,130.6,8.6,130.6z"/>
	<path class="st0" d="M8.6,73.9c-4.6,0-8.4-3.7-8.4-8.4s3.7-8.4,8.4-8.4s8.4,3.7,8.4,8.4l0,0C17,70.1,13.2,73.9,8.6,73.9L8.6,73.9z"
		/>
</g>
</svg>
