<?xml version="1.0" encoding="utf-8"?>
<!-- Generator: Adobe Illustrator 22.1.0, SVG Export Plug-In . SVG Version: 6.00 Build 0)  -->
<svg version="1.1" id="レイヤー_2_1_" xmlns="http://www.w3.org/2000/svg" xmlns:xlink="http://www.w3.org/1999/xlink" x="0px"
	 y="0px" viewBox="0 0 235 235" style="enable-background:new 0 0 235 235;" xml:space="preserve">
<style type="text/css">
	.st0{fill:#99DBFF;}
	.st1{fill:#5AB8FF;}
	.st2{fill:#339EFF;}
</style>
<title>addlink</title>
<path class="st0" d="M44.6,52.2c2,2,5.2,2,7.1,0s2-5.2,0-7.1l0,0L44.6,38c-2-2-5.2-2-7.1,0s-2,5.2,0,7.1L44.6,52.2z"/>
<path class="st0" d="M22.5,66.7l8.7,5c0.8,0.4,1.6,0.7,2.5,0.7c2.8,0.1,5.1-2.1,5.2-4.8c0.1-1.9-1-3.7-2.6-4.6l-8.7-5
	c-2.4-1.4-5.5-0.5-6.9,1.9S20.1,65.4,22.5,66.7L22.5,66.7z"/>
<path class="st0" d="M84,26.5c0.6,2.2,2.6,3.7,4.9,3.7c0.4,0,0.9-0.1,1.3-0.2c2.7-0.7,4.3-3.4,3.6-6.1c0,0,0,0,0-0.1l-2.6-9.7
	c-0.7-2.7-3.5-4.3-6.2-3.6s-4.3,3.5-3.6,6.2L84,26.5z"/>
<path class="st0" d="M13.7,91.5l9.7,2.6c0.4,0.1,0.9,0.2,1.3,0.2c2.7,0.3,5.2-1.7,5.5-4.5c0.3-2.6-1.6-5-4.2-5.4l-9.7-2.6
	c-2.7-0.7-5.5,0.9-6.2,3.6C9.4,88.1,11,90.8,13.7,91.5L13.7,91.5z"/>
<path class="st0" d="M62.6,36.7c1.4,2.4,4.5,3.2,6.9,1.9c2.4-1.4,3.2-4.5,1.9-6.9l-5-8.7c-1.4-2.4-4.5-3.2-6.9-1.9s-3.2,4.5-1.9,6.9
	L62.6,36.7z"/>
<path class="st0" d="M190.1,183.5c-2-2-5.2-2-7.1,0s-2,5.2,0,7.1l0,0l7.1,7.1c2,2,5.2,2,7.1,0s2-5.2,0-7.1L190.1,183.5z"/>
<path class="st0" d="M212.2,168.9l-8.7-5c-2.4-1.4-5.5-0.5-6.9,1.9s-0.5,5.5,1.9,6.9l8.7,5c2.4,1.4,5.5,0.5,6.9-1.9
	S214.6,170.3,212.2,168.9L212.2,168.9L212.2,168.9z"/>
<path class="st0" d="M150.8,209.2c-0.7-2.7-3.5-4.3-6.2-3.6s-4.3,3.5-3.6,6.2l2.6,9.7c0.6,2.2,2.6,3.7,4.9,3.7
	c0.4,0,0.9-0.1,1.3-0.2c2.7-0.7,4.3-3.4,3.6-6.1c0,0,0,0,0-0.1L150.8,209.2z"/>
<path class="st0" d="M221.1,144.1l-9.7-2.6c-2.7-0.7-5.4,0.9-6.2,3.6s0.9,5.4,3.6,6.2l0,0l9.7,2.6c0.4,0.1,0.9,0.2,1.3,0.2
	c2.7,0.3,5.2-1.7,5.5-4.5C225.5,146.9,223.7,144.6,221.1,144.1L221.1,144.1z"/>
<path class="st0" d="M172.2,198.9c-1.4-2.4-4.5-3.2-6.9-1.9s-3.2,4.5-1.9,6.9l5,8.7c0.9,1.6,2.6,2.5,4.4,2.5c0.9,0,1.7-0.2,2.5-0.7
	c2.4-1.4,3.2-4.4,1.9-6.8c0,0,0,0,0-0.1L172.2,198.9z"/>
<path class="st1" d="M119.4,115.7c-17-17.1-16.9-44.8,0.1-61.8l8.5-8.5c17-17.1,44.7-17.1,61.8-0.2c16.9,16.9,17.2,44.1,0.7,62
	l-8.8,8.9C163.5,132.9,136.3,132.6,119.4,115.7z M173.3,61.8c-8-7.9-20.8-7.8-28.6,0.2l-8.5,8.5c-7.9,7.9-8,20.7-0.1,28.7
	c7.9,7.9,20.9,8,29.5,0l8.2-8.2C181.3,82.7,181.2,69.9,173.3,61.8z"/>
<path class="st1" d="M44.8,190.3c-17-17.1-16.9-44.8,0.2-61.8l8.5-8.5c17-17.1,44.7-17.1,61.8-0.1c16.9,16.9,17.2,44.1,0.7,62
	l-8.9,8.9C88.9,207.5,61.7,207.2,44.8,190.3z M98.7,136.4c-8-7.9-20.8-7.8-28.7,0.1l-8.5,8.5c-7.9,7.9-8,20.7-0.1,28.6
	c7.9,7.9,20.9,8,29.5,0l8.2-8.2C106.7,157.3,106.5,144.5,98.7,136.4z"/>
<path class="st2" d="M82.1,153c-4.6-4.6-4.6-12,0-16.6l0,0L136,82.5c4.6-4.6,12-4.6,16.6,0s4.6,12,0,16.6l0,0L98.7,153
	C94.1,157.6,86.7,157.6,82.1,153L82.1,153z"/>
</svg>
