<?xml version="1.0" encoding="utf-8"?>
<!-- Generator: Adobe Illustrator 22.1.0, SVG Export Plug-In . SVG Version: 6.00 Build 0)  -->
<svg version="1.1" id="Layer_1" xmlns="http://www.w3.org/2000/svg" xmlns:xlink="http://www.w3.org/1999/xlink" x="0px" y="0px"
	 viewBox="0 0 283.3 290.4" style="enable-background:new 0 0 283.3 290.4;" xml:space="preserve">
<style type="text/css">
	.st0{opacity:0.3;}
	.st1{fill:#FFFFFF;}
</style>
<title>pattern</title>
<g class="st0">
	<path class="st1" d="M9.8,5.4c1.5,0,2.7-1.2,2.7-2.7c0-1.5-1.2-2.7-2.7-2.7C8.3,0,7.1,1.2,7.1,2.7C7.1,4.2,8.3,5.4,9.8,5.4z"/>
	<path class="st1" d="M24.1,5.4c1.5,0,2.7-1.2,2.7-2.7c0-1.5-1.2-2.7-2.7-2.7c-1.5,0-2.7,1.2-2.7,2.7C21.4,4.2,22.6,5.4,24.1,5.4z"
		/>
	<path class="st1" d="M38.3,5.4c1.5,0,2.7-1.2,2.7-2.7C41,1.2,39.8,0,38.3,0c-1.5,0-2.7,1.2-2.7,2.7C35.6,4.2,36.8,5.4,38.3,5.4z"/>
	<path class="st1" d="M52.6,5.4c1.5,0,2.7-1.2,2.7-2.7c0-1.5-1.2-2.7-2.7-2.7c-1.5,0-2.7,1.2-2.7,2.7C49.9,4.2,51.1,5.4,52.6,5.4z"
		/>
	<path class="st1" d="M66.8,5.4c1.5,0,2.7-1.2,2.7-2.7c0-1.5-1.2-2.7-2.7-2.7c-1.5,0-2.7,1.2-2.7,2.7C64.1,4.2,65.3,5.4,66.8,5.4z"
		/>
	<path class="st1" d="M81.1,5.4c1.5,0,2.7-1.2,2.7-2.7c0-1.5-1.2-2.7-2.7-2.7c-1.5,0-2.7,1.2-2.7,2.7C78.4,4.2,79.6,5.4,81.1,5.4z"
		/>
	<path class="st1" d="M95.3,5.4c1.5,0,2.7-1.2,2.7-2.7C98,1.2,96.8,0,95.3,0c-1.5,0-2.7,1.2-2.7,2.7C92.6,4.2,93.8,5.4,95.3,5.4z"/>
	<path class="st1" d="M109.6,5.4c1.5,0,2.7-1.2,2.7-2.7c0-1.5-1.2-2.7-2.7-2.7c-1.5,0-2.7,1.2-2.7,2.7
		C106.9,4.2,108.1,5.4,109.6,5.4z"/>
	<path class="st1" d="M123.8,5.4c1.5,0,2.7-1.2,2.7-2.7S125.3,0,123.8,0c-1.5,0-2.7,1.2-2.7,2.7C121.1,4.2,122.3,5.4,123.8,5.4z"/>
	<path class="st1" d="M138.1,5.4c1.5,0,2.7-1.2,2.7-2.7S139.6,0,138.1,0c-1.5,0-2.7,1.2-2.7,2.7C135.4,4.2,136.6,5.4,138.1,5.4z"/>
	<path class="st1" d="M152.3,5.4c1.5,0,2.7-1.2,2.7-2.7c0-1.5-1.2-2.7-2.7-2.7c-1.5,0-2.7,1.2-2.7,2.7
		C149.6,4.2,150.8,5.4,152.3,5.4z"/>
	<path class="st1" d="M166.6,5.4c1.5,0,2.7-1.2,2.7-2.7S168.1,0,166.6,0c-1.5,0-2.7,1.2-2.7,2.7C163.9,4.2,165.1,5.4,166.6,5.4z"/>
	<path class="st1" d="M180.8,5.4c1.5,0,2.7-1.2,2.7-2.7c0-1.5-1.2-2.7-2.7-2.7c-1.5,0-2.7,1.2-2.7,2.7
		C178.1,4.2,179.3,5.4,180.8,5.4z"/>
	<path class="st1" d="M195.1,5.4c1.5,0,2.7-1.2,2.7-2.7S196.6,0,195.1,0c-1.5,0-2.7,1.2-2.7,2.7C192.4,4.2,193.6,5.4,195.1,5.4z"/>
	<path class="st1" d="M209.3,5.4c1.5,0,2.7-1.2,2.7-2.7S210.8,0,209.3,0c-1.5,0-2.7,1.2-2.7,2.7C206.6,4.2,207.9,5.4,209.3,5.4z"/>
	<path class="st1" d="M223.6,5.4c1.5,0,2.7-1.2,2.7-2.7c0-1.5-1.2-2.7-2.7-2.7c-1.5,0-2.7,1.2-2.7,2.7
		C220.9,4.2,222.1,5.4,223.6,5.4z"/>
	<path class="st1" d="M237.8,5.4c1.5,0,2.7-1.2,2.7-2.7S239.3,0,237.8,0c-1.5,0-2.7,1.2-2.7,2.7C235.1,4.2,236.4,5.4,237.8,5.4z"/>
	<path class="st1" d="M252.1,5.4c1.5,0,2.7-1.2,2.7-2.7c0-1.5-1.2-2.7-2.7-2.7c-1.5,0-2.7,1.2-2.7,2.7S250.6,5.4,252.1,5.4z"/>
	<path class="st1" d="M266.3,5.4c1.5,0,2.7-1.2,2.7-2.7c0-1.5-1.2-2.7-2.7-2.7c-1.5,0-2.7,1.2-2.7,2.7
		C263.6,4.2,264.9,5.4,266.3,5.4z"/>
	<path class="st1" d="M280.6,5.4c1.5,0,2.7-1.2,2.7-2.7S282.1,0,280.6,0c-1.5,0-2.7,1.2-2.7,2.7C277.9,4.2,279.1,5.4,280.6,5.4z"/>
	<path class="st1" d="M2.7,19.7c1.5,0,2.7-1.2,2.7-2.7c0-1.5-1.2-2.7-2.7-2.7C1.2,14.3,0,15.5,0,17C0,18.4,1.2,19.7,2.7,19.7z"/>
	<path class="st1" d="M17,19.7c1.5,0,2.7-1.2,2.7-2.7c0-1.5-1.2-2.7-2.7-2.7c-1.5,0-2.7,1.2-2.7,2.7C14.3,18.4,15.5,19.7,17,19.7z"
		/>
	<path class="st1" d="M31.2,19.7c1.5,0,2.7-1.2,2.7-2.7c0-1.5-1.2-2.7-2.7-2.7c-1.5,0-2.7,1.2-2.7,2.7
		C28.5,18.4,29.7,19.7,31.2,19.7z"/>
	<path class="st1" d="M45.5,19.7c1.5,0,2.7-1.2,2.7-2.7c0-1.5-1.2-2.7-2.7-2.7c-1.5,0-2.7,1.2-2.7,2.7C42.8,18.4,44,19.7,45.5,19.7z
		"/>
	<path class="st1" d="M59.7,19.7c1.5,0,2.7-1.2,2.7-2.7c0-1.5-1.2-2.7-2.7-2.7c-1.5,0-2.7,1.2-2.7,2.7C57,18.4,58.2,19.7,59.7,19.7z
		"/>
	<path class="st1" d="M74,19.7c1.5,0,2.7-1.2,2.7-2.7c0-1.5-1.2-2.7-2.7-2.7c-1.5,0-2.7,1.2-2.7,2.7C71.3,18.4,72.5,19.7,74,19.7z"
		/>
	<path class="st1" d="M88.2,19.7c1.5,0,2.7-1.2,2.7-2.7c0-1.5-1.2-2.7-2.7-2.7c-1.5,0-2.7,1.2-2.7,2.7
		C85.5,18.4,86.7,19.7,88.2,19.7z"/>
	<path class="st1" d="M102.5,19.7c1.5,0,2.7-1.2,2.7-2.7c0-1.5-1.2-2.7-2.7-2.7c-1.5,0-2.7,1.2-2.7,2.7
		C99.8,18.4,101,19.7,102.5,19.7z"/>
	<path class="st1" d="M116.7,19.7c1.5,0,2.7-1.2,2.7-2.7c0-1.5-1.2-2.7-2.7-2.7c-1.5,0-2.7,1.2-2.7,2.7
		C114,18.4,115.2,19.7,116.7,19.7z"/>
	<path class="st1" d="M131,19.7c1.5,0,2.7-1.2,2.7-2.7c0-1.5-1.2-2.7-2.7-2.7c-1.5,0-2.7,1.2-2.7,2.7
		C128.3,18.4,129.5,19.7,131,19.7z"/>
	<path class="st1" d="M145.2,19.7c1.5,0,2.7-1.2,2.7-2.7c0-1.5-1.2-2.7-2.7-2.7c-1.5,0-2.7,1.2-2.7,2.7
		C142.5,18.4,143.7,19.7,145.2,19.7z"/>
	<path class="st1" d="M159.5,19.7c1.5,0,2.7-1.2,2.7-2.7c0-1.5-1.2-2.7-2.7-2.7c-1.5,0-2.7,1.2-2.7,2.7
		C156.8,18.4,158,19.7,159.5,19.7z"/>
	<path class="st1" d="M173.7,19.7c1.5,0,2.7-1.2,2.7-2.7c0-1.5-1.2-2.7-2.7-2.7c-1.5,0-2.7,1.2-2.7,2.7
		C171,18.4,172.2,19.7,173.7,19.7z"/>
	<path class="st1" d="M188,19.7c1.5,0,2.7-1.2,2.7-2.7c0-1.5-1.2-2.7-2.7-2.7c-1.5,0-2.7,1.2-2.7,2.7
		C185.3,18.4,186.5,19.7,188,19.7z"/>
	<path class="st1" d="M202.2,19.7c1.5,0,2.7-1.2,2.7-2.7c0-1.5-1.2-2.7-2.7-2.7c-1.5,0-2.7,1.2-2.7,2.7
		C199.5,18.4,200.7,19.7,202.2,19.7z"/>
	<path class="st1" d="M216.5,19.7c1.5,0,2.7-1.2,2.7-2.7c0-1.5-1.2-2.7-2.7-2.7c-1.5,0-2.7,1.2-2.7,2.7
		C213.8,18.4,215,19.7,216.5,19.7z"/>
	<path class="st1" d="M230.7,19.7c1.5,0,2.7-1.2,2.7-2.7c0-1.5-1.2-2.7-2.7-2.7c-1.5,0-2.7,1.2-2.7,2.7
		C228,18.4,229.2,19.7,230.7,19.7z"/>
	<path class="st1" d="M245,19.7c1.5,0,2.7-1.2,2.7-2.7c0-1.5-1.2-2.7-2.7-2.7c-1.5,0-2.7,1.2-2.7,2.7
		C242.3,18.4,243.5,19.7,245,19.7z"/>
	<path class="st1" d="M259.2,19.7c1.5,0,2.7-1.2,2.7-2.7c0-1.5-1.2-2.7-2.7-2.7c-1.5,0-2.7,1.2-2.7,2.7
		C256.5,18.4,257.7,19.7,259.2,19.7z"/>
	<path class="st1" d="M273.5,19.7c1.5,0,2.7-1.2,2.7-2.7c0-1.5-1.2-2.7-2.7-2.7c-1.5,0-2.7,1.2-2.7,2.7
		C270.8,18.4,272,19.7,273.5,19.7z"/>
	<path class="st1" d="M9.8,33.9c1.5,0,2.7-1.2,2.7-2.7c0-1.5-1.2-2.7-2.7-2.7c-1.5,0-2.7,1.2-2.7,2.7C7.1,32.7,8.3,33.9,9.8,33.9z"
		/>
	<path class="st1" d="M24.1,33.9c1.5,0,2.7-1.2,2.7-2.7c0-1.5-1.2-2.7-2.7-2.7c-1.5,0-2.7,1.2-2.7,2.7
		C21.4,32.7,22.6,33.9,24.1,33.9z"/>
	<path class="st1" d="M38.3,33.9c1.5,0,2.7-1.2,2.7-2.7c0-1.5-1.2-2.7-2.7-2.7c-1.5,0-2.7,1.2-2.7,2.7
		C35.6,32.7,36.8,33.9,38.3,33.9z"/>
	<path class="st1" d="M52.6,33.9c1.5,0,2.7-1.2,2.7-2.7c0-1.5-1.2-2.7-2.7-2.7c-1.5,0-2.7,1.2-2.7,2.7
		C49.9,32.7,51.1,33.9,52.6,33.9z"/>
	<path class="st1" d="M66.8,33.9c1.5,0,2.7-1.2,2.7-2.7c0-1.5-1.2-2.7-2.7-2.7c-1.5,0-2.7,1.2-2.7,2.7
		C64.1,32.7,65.3,33.9,66.8,33.9z"/>
	<path class="st1" d="M81.1,33.9c1.5,0,2.7-1.2,2.7-2.7c0-1.5-1.2-2.7-2.7-2.7c-1.5,0-2.7,1.2-2.7,2.7
		C78.4,32.7,79.6,33.9,81.1,33.9z"/>
	<path class="st1" d="M95.3,33.9c1.5,0,2.7-1.2,2.7-2.7c0-1.5-1.2-2.7-2.7-2.7c-1.5,0-2.7,1.2-2.7,2.7
		C92.6,32.7,93.8,33.9,95.3,33.9z"/>
	<path class="st1" d="M109.6,33.9c1.5,0,2.7-1.2,2.7-2.7c0-1.5-1.2-2.7-2.7-2.7c-1.5,0-2.7,1.2-2.7,2.7
		C106.9,32.7,108.1,33.9,109.6,33.9z"/>
	<path class="st1" d="M123.8,33.9c1.5,0,2.7-1.2,2.7-2.7s-1.2-2.7-2.7-2.7c-1.5,0-2.7,1.2-2.7,2.7S122.3,33.9,123.8,33.9z"/>
	<path class="st1" d="M138.1,33.9c1.5,0,2.7-1.2,2.7-2.7s-1.2-2.7-2.7-2.7c-1.5,0-2.7,1.2-2.7,2.7S136.6,33.9,138.1,33.9z"/>
	<path class="st1" d="M152.3,33.9c1.5,0,2.7-1.2,2.7-2.7c0-1.5-1.2-2.7-2.7-2.7c-1.5,0-2.7,1.2-2.7,2.7
		C149.6,32.7,150.8,33.9,152.3,33.9z"/>
	<path class="st1" d="M166.6,33.9c1.5,0,2.7-1.2,2.7-2.7s-1.2-2.7-2.7-2.7c-1.5,0-2.7,1.2-2.7,2.7S165.1,33.9,166.6,33.9z"/>
	<path class="st1" d="M180.8,33.9c1.5,0,2.7-1.2,2.7-2.7c0-1.5-1.2-2.7-2.7-2.7c-1.5,0-2.7,1.2-2.7,2.7
		C178.1,32.7,179.3,33.9,180.8,33.9z"/>
	<path class="st1" d="M195.1,33.9c1.5,0,2.7-1.2,2.7-2.7s-1.2-2.7-2.7-2.7c-1.5,0-2.7,1.2-2.7,2.7S193.6,33.9,195.1,33.9z"/>
	<path class="st1" d="M209.3,33.9c1.5,0,2.7-1.2,2.7-2.7s-1.2-2.7-2.7-2.7c-1.5,0-2.7,1.2-2.7,2.7S207.9,33.9,209.3,33.9z"/>
	<path class="st1" d="M223.6,33.9c1.5,0,2.7-1.2,2.7-2.7c0-1.5-1.2-2.7-2.7-2.7c-1.5,0-2.7,1.2-2.7,2.7
		C220.9,32.7,222.1,33.9,223.6,33.9z"/>
	<path class="st1" d="M237.8,33.9c1.5,0,2.7-1.2,2.7-2.7s-1.2-2.7-2.7-2.7c-1.5,0-2.7,1.2-2.7,2.7S236.4,33.9,237.8,33.9z"/>
	<path class="st1" d="M252.1,33.9c1.5,0,2.7-1.2,2.7-2.7s-1.2-2.7-2.7-2.7c-1.5,0-2.7,1.2-2.7,2.7S250.6,33.9,252.1,33.9z"/>
	<path class="st1" d="M266.3,33.9c1.5,0,2.7-1.2,2.7-2.7c0-1.5-1.2-2.7-2.7-2.7c-1.5,0-2.7,1.2-2.7,2.7
		C263.6,32.7,264.9,33.9,266.3,33.9z"/>
	<path class="st1" d="M280.6,33.9c1.5,0,2.7-1.2,2.7-2.7s-1.2-2.7-2.7-2.7c-1.5,0-2.7,1.2-2.7,2.7S279.1,33.9,280.6,33.9z"/>
	<path class="st1" d="M2.7,48.2c1.5,0,2.7-1.2,2.7-2.7c0-1.5-1.2-2.7-2.7-2.7C1.2,42.8,0,44,0,45.5C0,46.9,1.2,48.2,2.7,48.2z"/>
	<path class="st1" d="M17,48.2c1.5,0,2.7-1.2,2.7-2.7c0-1.5-1.2-2.7-2.7-2.7c-1.5,0-2.7,1.2-2.7,2.7S15.5,48.2,17,48.2z"/>
	<path class="st1" d="M31.2,48.2c1.5,0,2.7-1.2,2.7-2.7c0-1.5-1.2-2.7-2.7-2.7c-1.5,0-2.7,1.2-2.7,2.7
		C28.5,46.9,29.7,48.2,31.2,48.2z"/>
	<path class="st1" d="M45.5,48.2c1.5,0,2.7-1.2,2.7-2.7s-1.2-2.7-2.7-2.7c-1.5,0-2.7,1.2-2.7,2.7C42.8,46.9,44,48.2,45.5,48.2z"/>
	<path class="st1" d="M59.7,48.2c1.5,0,2.7-1.2,2.7-2.7c0-1.5-1.2-2.7-2.7-2.7c-1.5,0-2.7,1.2-2.7,2.7C57,46.9,58.2,48.2,59.7,48.2z
		"/>
	<path class="st1" d="M74,48.2c1.5,0,2.7-1.2,2.7-2.7s-1.2-2.7-2.7-2.7c-1.5,0-2.7,1.2-2.7,2.7C71.3,46.9,72.5,48.2,74,48.2z"/>
	<path class="st1" d="M88.2,48.2c1.5,0,2.7-1.2,2.7-2.7s-1.2-2.7-2.7-2.7c-1.5,0-2.7,1.2-2.7,2.7C85.5,46.9,86.7,48.2,88.2,48.2z"/>
	<path class="st1" d="M102.5,48.2c1.5,0,2.7-1.2,2.7-2.7c0-1.5-1.2-2.7-2.7-2.7c-1.5,0-2.7,1.2-2.7,2.7
		C99.8,46.9,101,48.2,102.5,48.2z"/>
	<path class="st1" d="M116.7,48.2c1.5,0,2.7-1.2,2.7-2.7c0-1.5-1.2-2.7-2.7-2.7c-1.5,0-2.7,1.2-2.7,2.7
		C114,46.9,115.2,48.2,116.7,48.2z"/>
	<path class="st1" d="M131,48.2c1.5,0,2.7-1.2,2.7-2.7c0-1.5-1.2-2.7-2.7-2.7c-1.5,0-2.7,1.2-2.7,2.7S129.5,48.2,131,48.2z"/>
	<path class="st1" d="M145.2,48.2c1.5,0,2.7-1.2,2.7-2.7s-1.2-2.7-2.7-2.7c-1.5,0-2.7,1.2-2.7,2.7C142.5,46.9,143.7,48.2,145.2,48.2
		z"/>
	<path class="st1" d="M159.5,48.2c1.5,0,2.7-1.2,2.7-2.7c0-1.5-1.2-2.7-2.7-2.7c-1.5,0-2.7,1.2-2.7,2.7S158,48.2,159.5,48.2z"/>
	<path class="st1" d="M173.7,48.2c1.5,0,2.7-1.2,2.7-2.7s-1.2-2.7-2.7-2.7c-1.5,0-2.7,1.2-2.7,2.7C171,46.9,172.2,48.2,173.7,48.2z"
		/>
	<path class="st1" d="M188,48.2c1.5,0,2.7-1.2,2.7-2.7c0-1.5-1.2-2.7-2.7-2.7c-1.5,0-2.7,1.2-2.7,2.7
		C185.3,46.9,186.5,48.2,188,48.2z"/>
	<path class="st1" d="M202.2,48.2c1.5,0,2.7-1.2,2.7-2.7c0-1.5-1.2-2.7-2.7-2.7c-1.5,0-2.7,1.2-2.7,2.7S200.7,48.2,202.2,48.2z"/>
	<path class="st1" d="M216.5,48.2c1.5,0,2.7-1.2,2.7-2.7s-1.2-2.7-2.7-2.7c-1.5,0-2.7,1.2-2.7,2.7C213.8,46.9,215,48.2,216.5,48.2z"
		/>
	<path class="st1" d="M230.7,48.2c1.5,0,2.7-1.2,2.7-2.7c0-1.5-1.2-2.7-2.7-2.7c-1.5,0-2.7,1.2-2.7,2.7S229.2,48.2,230.7,48.2z"/>
	<path class="st1" d="M245,48.2c1.5,0,2.7-1.2,2.7-2.7c0-1.5-1.2-2.7-2.7-2.7c-1.5,0-2.7,1.2-2.7,2.7S243.5,48.2,245,48.2z"/>
	<path class="st1" d="M259.2,48.2c1.5,0,2.7-1.2,2.7-2.7c0-1.5-1.2-2.7-2.7-2.7c-1.5,0-2.7,1.2-2.7,2.7S257.7,48.2,259.2,48.2z"/>
	<path class="st1" d="M273.5,48.2c1.5,0,2.7-1.2,2.7-2.7c0-1.5-1.2-2.7-2.7-2.7c-1.5,0-2.7,1.2-2.7,2.7S272,48.2,273.5,48.2z"/>
	<path class="st1" d="M9.8,62.4c1.5,0,2.7-1.2,2.7-2.7c0-1.5-1.2-2.7-2.7-2.7c-1.5,0-2.7,1.2-2.7,2.7C7.1,61.2,8.3,62.4,9.8,62.4z"
		/>
	<path class="st1" d="M24.1,62.4c1.5,0,2.7-1.2,2.7-2.7c0-1.5-1.2-2.7-2.7-2.7c-1.5,0-2.7,1.2-2.7,2.7
		C21.4,61.2,22.6,62.4,24.1,62.4z"/>
	<path class="st1" d="M38.3,62.4c1.5,0,2.7-1.2,2.7-2.7c0-1.5-1.2-2.7-2.7-2.7c-1.5,0-2.7,1.2-2.7,2.7
		C35.6,61.2,36.8,62.4,38.3,62.4z"/>
	<path class="st1" d="M52.6,62.4c1.5,0,2.7-1.2,2.7-2.7c0-1.5-1.2-2.7-2.7-2.7c-1.5,0-2.7,1.2-2.7,2.7
		C49.9,61.2,51.1,62.4,52.6,62.4z"/>
	<path class="st1" d="M66.8,62.4c1.5,0,2.7-1.2,2.7-2.7c0-1.5-1.2-2.7-2.7-2.7c-1.5,0-2.7,1.2-2.7,2.7
		C64.1,61.2,65.3,62.4,66.8,62.4z"/>
	<path class="st1" d="M81.1,62.4c1.5,0,2.7-1.2,2.7-2.7c0-1.5-1.2-2.7-2.7-2.7c-1.5,0-2.7,1.2-2.7,2.7
		C78.4,61.2,79.6,62.4,81.1,62.4z"/>
	<path class="st1" d="M95.3,62.4c1.5,0,2.7-1.2,2.7-2.7c0-1.5-1.2-2.7-2.7-2.7c-1.5,0-2.7,1.2-2.7,2.7
		C92.6,61.2,93.8,62.4,95.3,62.4z"/>
	<path class="st1" d="M109.6,62.4c1.5,0,2.7-1.2,2.7-2.7c0-1.5-1.2-2.7-2.7-2.7c-1.5,0-2.7,1.2-2.7,2.7
		C106.9,61.2,108.1,62.4,109.6,62.4z"/>
	<path class="st1" d="M123.8,62.4c1.5,0,2.7-1.2,2.7-2.7c0-1.5-1.2-2.7-2.7-2.7c-1.5,0-2.7,1.2-2.7,2.7
		C121.1,61.2,122.3,62.4,123.8,62.4z"/>
	<path class="st1" d="M138.1,62.4c1.5,0,2.7-1.2,2.7-2.7c0-1.5-1.2-2.7-2.7-2.7c-1.5,0-2.7,1.2-2.7,2.7
		C135.4,61.2,136.6,62.4,138.1,62.4z"/>
	<path class="st1" d="M152.3,62.4c1.5,0,2.7-1.2,2.7-2.7c0-1.5-1.2-2.7-2.7-2.7c-1.5,0-2.7,1.2-2.7,2.7
		C149.6,61.2,150.8,62.4,152.3,62.4z"/>
	<path class="st1" d="M166.6,62.4c1.5,0,2.7-1.2,2.7-2.7c0-1.5-1.2-2.7-2.7-2.7c-1.5,0-2.7,1.2-2.7,2.7
		C163.9,61.2,165.1,62.4,166.6,62.4z"/>
	<path class="st1" d="M180.8,62.4c1.5,0,2.7-1.2,2.7-2.7c0-1.5-1.2-2.7-2.7-2.7c-1.5,0-2.7,1.2-2.7,2.7
		C178.1,61.2,179.3,62.4,180.8,62.4z"/>
	<path class="st1" d="M195.1,62.4c1.5,0,2.7-1.2,2.7-2.7c0-1.5-1.2-2.7-2.7-2.7c-1.5,0-2.7,1.2-2.7,2.7S193.6,62.4,195.1,62.4z"/>
	<path class="st1" d="M209.3,62.4c1.5,0,2.7-1.2,2.7-2.7c0-1.5-1.2-2.7-2.7-2.7c-1.5,0-2.7,1.2-2.7,2.7
		C206.6,61.2,207.9,62.4,209.3,62.4z"/>
	<path class="st1" d="M223.6,62.4c1.5,0,2.7-1.2,2.7-2.7c0-1.5-1.2-2.7-2.7-2.7c-1.5,0-2.7,1.2-2.7,2.7
		C220.9,61.2,222.1,62.4,223.6,62.4z"/>
	<path class="st1" d="M237.8,62.4c1.5,0,2.7-1.2,2.7-2.7c0-1.5-1.2-2.7-2.7-2.7c-1.5,0-2.7,1.2-2.7,2.7
		C235.1,61.2,236.4,62.4,237.8,62.4z"/>
	<path class="st1" d="M252.1,62.4c1.5,0,2.7-1.2,2.7-2.7c0-1.5-1.2-2.7-2.7-2.7c-1.5,0-2.7,1.2-2.7,2.7
		C249.4,61.2,250.6,62.4,252.1,62.4z"/>
	<path class="st1" d="M266.3,62.4c1.5,0,2.7-1.2,2.7-2.7c0-1.5-1.2-2.7-2.7-2.7c-1.5,0-2.7,1.2-2.7,2.7
		C263.6,61.2,264.9,62.4,266.3,62.4z"/>
	<path class="st1" d="M280.6,62.4c1.5,0,2.7-1.2,2.7-2.7c0-1.5-1.2-2.7-2.7-2.7c-1.5,0-2.7,1.2-2.7,2.7
		C277.9,61.2,279.1,62.4,280.6,62.4z"/>
	<path class="st1" d="M2.7,76.7c1.5,0,2.7-1.2,2.7-2.7c0-1.5-1.2-2.7-2.7-2.7C1.2,71.3,0,72.5,0,74C0,75.4,1.2,76.7,2.7,76.7z"/>
	<path class="st1" d="M17,76.7c1.5,0,2.7-1.2,2.7-2.7c0-1.5-1.2-2.7-2.7-2.7c-1.5,0-2.7,1.2-2.7,2.7C14.3,75.4,15.5,76.7,17,76.7z"
		/>
	<path class="st1" d="M31.2,76.7c1.5,0,2.7-1.2,2.7-2.7c0-1.5-1.2-2.7-2.7-2.7c-1.5,0-2.7,1.2-2.7,2.7
		C28.5,75.4,29.7,76.7,31.2,76.7z"/>
	<path class="st1" d="M45.5,76.7c1.5,0,2.7-1.2,2.7-2.7c0-1.5-1.2-2.7-2.7-2.7c-1.5,0-2.7,1.2-2.7,2.7C42.8,75.4,44,76.7,45.5,76.7z
		"/>
	<path class="st1" d="M59.7,76.7c1.5,0,2.7-1.2,2.7-2.7c0-1.5-1.2-2.7-2.7-2.7c-1.5,0-2.7,1.2-2.7,2.7C57,75.4,58.2,76.7,59.7,76.7z
		"/>
	<path class="st1" d="M74,76.7c1.5,0,2.7-1.2,2.7-2.7c0-1.5-1.2-2.7-2.7-2.7c-1.5,0-2.7,1.2-2.7,2.7C71.3,75.4,72.5,76.7,74,76.7z"
		/>
	<path class="st1" d="M88.2,76.7c1.5,0,2.7-1.2,2.7-2.7c0-1.5-1.2-2.7-2.7-2.7c-1.5,0-2.7,1.2-2.7,2.7
		C85.5,75.4,86.7,76.7,88.2,76.7z"/>
	<path class="st1" d="M102.5,76.7c1.5,0,2.7-1.2,2.7-2.7c0-1.5-1.2-2.7-2.7-2.7c-1.5,0-2.7,1.2-2.7,2.7
		C99.8,75.4,101,76.7,102.5,76.7z"/>
	<path class="st1" d="M116.7,76.7c1.5,0,2.7-1.2,2.7-2.7c0-1.5-1.2-2.7-2.7-2.7c-1.5,0-2.7,1.2-2.7,2.7
		C114,75.4,115.2,76.7,116.7,76.7z"/>
	<path class="st1" d="M131,76.7c1.5,0,2.7-1.2,2.7-2.7c0-1.5-1.2-2.7-2.7-2.7c-1.5,0-2.7,1.2-2.7,2.7
		C128.3,75.4,129.5,76.7,131,76.7z"/>
	<path class="st1" d="M145.2,76.7c1.5,0,2.7-1.2,2.7-2.7c0-1.5-1.2-2.7-2.7-2.7c-1.5,0-2.7,1.2-2.7,2.7
		C142.5,75.4,143.7,76.7,145.2,76.7z"/>
	<path class="st1" d="M159.5,76.7c1.5,0,2.7-1.2,2.7-2.7c0-1.5-1.2-2.7-2.7-2.7c-1.5,0-2.7,1.2-2.7,2.7
		C156.8,75.4,158,76.7,159.5,76.7z"/>
	<path class="st1" d="M173.7,76.7c1.5,0,2.7-1.2,2.7-2.7c0-1.5-1.2-2.7-2.7-2.7c-1.5,0-2.7,1.2-2.7,2.7
		C171,75.4,172.2,76.7,173.7,76.7z"/>
	<path class="st1" d="M188,76.7c1.5,0,2.7-1.2,2.7-2.7c0-1.5-1.2-2.7-2.7-2.7c-1.5,0-2.7,1.2-2.7,2.7
		C185.3,75.4,186.5,76.7,188,76.7z"/>
	<path class="st1" d="M202.2,76.7c1.5,0,2.7-1.2,2.7-2.7c0-1.5-1.2-2.7-2.7-2.7c-1.5,0-2.7,1.2-2.7,2.7
		C199.5,75.4,200.7,76.7,202.2,76.7z"/>
	<path class="st1" d="M216.5,76.7c1.5,0,2.7-1.2,2.7-2.7c0-1.5-1.2-2.7-2.7-2.7c-1.5,0-2.7,1.2-2.7,2.7
		C213.8,75.4,215,76.7,216.5,76.7z"/>
	<path class="st1" d="M230.7,76.7c1.5,0,2.7-1.2,2.7-2.7c0-1.5-1.2-2.7-2.7-2.7c-1.5,0-2.7,1.2-2.7,2.7
		C228,75.4,229.2,76.7,230.7,76.7z"/>
	<path class="st1" d="M245,76.7c1.5,0,2.7-1.2,2.7-2.7c0-1.5-1.2-2.7-2.7-2.7c-1.5,0-2.7,1.2-2.7,2.7
		C242.3,75.4,243.5,76.7,245,76.7z"/>
	<path class="st1" d="M259.2,76.7c1.5,0,2.7-1.2,2.7-2.7c0-1.5-1.2-2.7-2.7-2.7c-1.5,0-2.7,1.2-2.7,2.7
		C256.5,75.4,257.7,76.7,259.2,76.7z"/>
	<path class="st1" d="M273.5,76.7c1.5,0,2.7-1.2,2.7-2.7c0-1.5-1.2-2.7-2.7-2.7c-1.5,0-2.7,1.2-2.7,2.7
		C270.8,75.4,272,76.7,273.5,76.7z"/>
	<path class="st1" d="M9.8,90.9c1.5,0,2.7-1.2,2.7-2.7c0-1.5-1.2-2.7-2.7-2.7c-1.5,0-2.7,1.2-2.7,2.7C7.1,89.7,8.3,90.9,9.8,90.9z"
		/>
	<path class="st1" d="M24.1,90.9c1.5,0,2.7-1.2,2.7-2.7c0-1.5-1.2-2.7-2.7-2.7c-1.5,0-2.7,1.2-2.7,2.7
		C21.4,89.7,22.6,90.9,24.1,90.9z"/>
	<path class="st1" d="M38.3,90.9c1.5,0,2.7-1.2,2.7-2.7c0-1.5-1.2-2.7-2.7-2.7c-1.5,0-2.7,1.2-2.7,2.7
		C35.6,89.7,36.8,90.9,38.3,90.9z"/>
	<path class="st1" d="M52.6,90.9c1.5,0,2.7-1.2,2.7-2.7c0-1.5-1.2-2.7-2.7-2.7c-1.5,0-2.7,1.2-2.7,2.7
		C49.9,89.7,51.1,90.9,52.6,90.9z"/>
	<path class="st1" d="M66.8,90.9c1.5,0,2.7-1.2,2.7-2.7c0-1.5-1.2-2.7-2.7-2.7c-1.5,0-2.7,1.2-2.7,2.7
		C64.1,89.7,65.3,90.9,66.8,90.9z"/>
	<path class="st1" d="M81.1,90.9c1.5,0,2.7-1.2,2.7-2.7c0-1.5-1.2-2.7-2.7-2.7c-1.5,0-2.7,1.2-2.7,2.7
		C78.4,89.7,79.6,90.9,81.1,90.9z"/>
	<path class="st1" d="M95.3,90.9c1.5,0,2.7-1.2,2.7-2.7c0-1.5-1.2-2.7-2.7-2.7c-1.5,0-2.7,1.2-2.7,2.7
		C92.6,89.7,93.8,90.9,95.3,90.9z"/>
	<path class="st1" d="M109.6,90.9c1.5,0,2.7-1.2,2.7-2.7c0-1.5-1.2-2.7-2.7-2.7c-1.5,0-2.7,1.2-2.7,2.7
		C106.9,89.7,108.1,90.9,109.6,90.9z"/>
	<path class="st1" d="M123.8,90.9c1.5,0,2.7-1.2,2.7-2.7c0-1.5-1.2-2.7-2.7-2.7c-1.5,0-2.7,1.2-2.7,2.7
		C121.1,89.7,122.3,90.9,123.8,90.9z"/>
	<path class="st1" d="M138.1,90.9c1.5,0,2.7-1.2,2.7-2.7c0-1.5-1.2-2.7-2.7-2.7c-1.5,0-2.7,1.2-2.7,2.7
		C135.4,89.7,136.6,90.9,138.1,90.9z"/>
	<path class="st1" d="M152.3,90.9c1.5,0,2.7-1.2,2.7-2.7c0-1.5-1.2-2.7-2.7-2.7c-1.5,0-2.7,1.2-2.7,2.7
		C149.6,89.7,150.8,90.9,152.3,90.9z"/>
	<path class="st1" d="M166.6,90.9c1.5,0,2.7-1.2,2.7-2.7c0-1.5-1.2-2.7-2.7-2.7c-1.5,0-2.7,1.2-2.7,2.7
		C163.9,89.7,165.1,90.9,166.6,90.9z"/>
	<path class="st1" d="M180.8,90.9c1.5,0,2.7-1.2,2.7-2.7c0-1.5-1.2-2.7-2.7-2.7c-1.5,0-2.7,1.2-2.7,2.7
		C178.1,89.7,179.3,90.9,180.8,90.9z"/>
	<path class="st1" d="M195.1,90.9c1.5,0,2.7-1.2,2.7-2.7c0-1.5-1.2-2.7-2.7-2.7c-1.5,0-2.7,1.2-2.7,2.7
		C192.4,89.7,193.6,90.9,195.1,90.9z"/>
	<path class="st1" d="M209.3,90.9c1.5,0,2.7-1.2,2.7-2.7c0-1.5-1.2-2.7-2.7-2.7c-1.5,0-2.7,1.2-2.7,2.7
		C206.6,89.7,207.9,90.9,209.3,90.9z"/>
	<path class="st1" d="M223.6,90.9c1.5,0,2.7-1.2,2.7-2.7c0-1.5-1.2-2.7-2.7-2.7c-1.5,0-2.7,1.2-2.7,2.7
		C220.9,89.7,222.1,90.9,223.6,90.9z"/>
	<path class="st1" d="M237.8,90.9c1.5,0,2.7-1.2,2.7-2.7c0-1.5-1.2-2.7-2.7-2.7c-1.5,0-2.7,1.2-2.7,2.7
		C235.1,89.7,236.4,90.9,237.8,90.9z"/>
	<path class="st1" d="M252.1,90.9c1.5,0,2.7-1.2,2.7-2.7c0-1.5-1.2-2.7-2.7-2.7c-1.5,0-2.7,1.2-2.7,2.7
		C249.4,89.7,250.6,90.9,252.1,90.9z"/>
	<path class="st1" d="M266.3,90.9c1.5,0,2.7-1.2,2.7-2.7c0-1.5-1.2-2.7-2.7-2.7c-1.5,0-2.7,1.2-2.7,2.7
		C263.6,89.7,264.9,90.9,266.3,90.9z"/>
	<path class="st1" d="M280.6,90.9c1.5,0,2.7-1.2,2.7-2.7c0-1.5-1.2-2.7-2.7-2.7c-1.5,0-2.7,1.2-2.7,2.7
		C277.9,89.7,279.1,90.9,280.6,90.9z"/>
	<path class="st1" d="M2.7,105.2c1.5,0,2.7-1.2,2.7-2.7c0-1.5-1.2-2.7-2.7-2.7c-1.5,0-2.7,1.2-2.7,2.7C0,103.9,1.2,105.2,2.7,105.2z
		"/>
	<path class="st1" d="M17,105.2c1.5,0,2.7-1.2,2.7-2.7c0-1.5-1.2-2.7-2.7-2.7c-1.5,0-2.7,1.2-2.7,2.7C14.3,104,15.5,105.2,17,105.2z
		"/>
	<path class="st1" d="M31.2,105.2c1.5,0,2.7-1.2,2.7-2.7c0-1.5-1.2-2.7-2.7-2.7c-1.5,0-2.7,1.2-2.7,2.7
		C28.5,104,29.7,105.2,31.2,105.2z"/>
	<path class="st1" d="M45.5,105.2c1.5,0,2.7-1.2,2.7-2.7c0-1.5-1.2-2.7-2.7-2.7c-1.5,0-2.7,1.2-2.7,2.7
		C42.8,103.9,44,105.2,45.5,105.2z"/>
	<path class="st1" d="M59.7,105.2c1.5,0,2.7-1.2,2.7-2.7c0-1.5-1.2-2.7-2.7-2.7c-1.5,0-2.7,1.2-2.7,2.7
		C57,104,58.2,105.2,59.7,105.2z"/>
	<path class="st1" d="M74,105.2c1.5,0,2.7-1.2,2.7-2.7c0-1.5-1.2-2.7-2.7-2.7c-1.5,0-2.7,1.2-2.7,2.7
		C71.3,103.9,72.5,105.2,74,105.2z"/>
	<path class="st1" d="M88.2,105.2c1.5,0,2.7-1.2,2.7-2.7c0-1.5-1.2-2.7-2.7-2.7c-1.5,0-2.7,1.2-2.7,2.7
		C85.5,103.9,86.7,105.2,88.2,105.2z"/>
	<path class="st1" d="M102.5,105.2c1.5,0,2.7-1.2,2.7-2.7c0-1.5-1.2-2.7-2.7-2.7c-1.5,0-2.7,1.2-2.7,2.7
		C99.8,104,101,105.2,102.5,105.2z"/>
	<path class="st1" d="M116.7,105.2c1.5,0,2.7-1.2,2.7-2.7c0-1.5-1.2-2.7-2.7-2.7c-1.5,0-2.7,1.2-2.7,2.7
		C114,104,115.2,105.2,116.7,105.2z"/>
	<path class="st1" d="M131,105.2c1.5,0,2.7-1.2,2.7-2.7c0-1.5-1.2-2.7-2.7-2.7c-1.5,0-2.7,1.2-2.7,2.7
		C128.3,104,129.5,105.2,131,105.2z"/>
	<path class="st1" d="M145.2,105.2c1.5,0,2.7-1.2,2.7-2.7c0-1.5-1.2-2.7-2.7-2.7c-1.5,0-2.7,1.2-2.7,2.7
		C142.5,103.9,143.7,105.2,145.2,105.2z"/>
	<path class="st1" d="M159.5,105.2c1.5,0,2.7-1.2,2.7-2.7c0-1.5-1.2-2.7-2.7-2.7c-1.5,0-2.7,1.2-2.7,2.7
		C156.8,104,158,105.2,159.5,105.2z"/>
	<path class="st1" d="M173.7,105.2c1.5,0,2.7-1.2,2.7-2.7c0-1.5-1.2-2.7-2.7-2.7c-1.5,0-2.7,1.2-2.7,2.7
		C171,104,172.2,105.2,173.7,105.2z"/>
	<path class="st1" d="M188,105.2c1.5,0,2.7-1.2,2.7-2.7c0-1.5-1.2-2.7-2.7-2.7c-1.5,0-2.7,1.2-2.7,2.7
		C185.3,104,186.5,105.2,188,105.2z"/>
	<path class="st1" d="M202.2,105.2c1.5,0,2.7-1.2,2.7-2.7c0-1.5-1.2-2.7-2.7-2.7c-1.5,0-2.7,1.2-2.7,2.7
		C199.5,104,200.7,105.2,202.2,105.2z"/>
	<path class="st1" d="M216.5,105.2c1.5,0,2.7-1.2,2.7-2.7c0-1.5-1.2-2.7-2.7-2.7c-1.5,0-2.7,1.2-2.7,2.7
		C213.8,103.9,215,105.2,216.5,105.2z"/>
	<path class="st1" d="M230.7,105.2c1.5,0,2.7-1.2,2.7-2.7c0-1.5-1.2-2.7-2.7-2.7c-1.5,0-2.7,1.2-2.7,2.7
		C228,104,229.2,105.2,230.7,105.2z"/>
	<path class="st1" d="M245,105.2c1.5,0,2.7-1.2,2.7-2.7c0-1.5-1.2-2.7-2.7-2.7c-1.5,0-2.7,1.2-2.7,2.7
		C242.3,104,243.5,105.2,245,105.2z"/>
	<path class="st1" d="M259.2,105.2c1.5,0,2.7-1.2,2.7-2.7c0-1.5-1.2-2.7-2.7-2.7c-1.5,0-2.7,1.2-2.7,2.7
		C256.5,104,257.7,105.2,259.2,105.2z"/>
	<path class="st1" d="M273.5,105.2c1.5,0,2.7-1.2,2.7-2.7c0-1.5-1.2-2.7-2.7-2.7c-1.5,0-2.7,1.2-2.7,2.7
		C270.8,104,272,105.2,273.5,105.2z"/>
	<path class="st1" d="M9.8,119.4c1.5,0,2.7-1.2,2.7-2.7c0-1.5-1.2-2.7-2.7-2.7c-1.5,0-2.7,1.2-2.7,2.7
		C7.1,118.2,8.3,119.4,9.8,119.4z"/>
	<path class="st1" d="M24.1,119.4c1.5,0,2.7-1.2,2.7-2.7c0-1.5-1.2-2.7-2.7-2.7c-1.5,0-2.7,1.2-2.7,2.7
		C21.4,118.2,22.6,119.4,24.1,119.4z"/>
	<path class="st1" d="M38.3,119.4c1.5,0,2.7-1.2,2.7-2.7c0-1.5-1.2-2.7-2.7-2.7c-1.5,0-2.7,1.2-2.7,2.7
		C35.6,118.2,36.8,119.4,38.3,119.4z"/>
	<path class="st1" d="M52.6,119.4c1.5,0,2.7-1.2,2.7-2.7c0-1.5-1.2-2.7-2.7-2.7c-1.5,0-2.7,1.2-2.7,2.7
		C49.9,118.2,51.1,119.4,52.6,119.4z"/>
	<path class="st1" d="M66.8,119.4c1.5,0,2.7-1.2,2.7-2.7c0-1.5-1.2-2.7-2.7-2.7c-1.5,0-2.7,1.2-2.7,2.7
		C64.1,118.2,65.3,119.4,66.8,119.4z"/>
	<path class="st1" d="M81.1,119.4c1.5,0,2.7-1.2,2.7-2.7c0-1.5-1.2-2.7-2.7-2.7c-1.5,0-2.7,1.2-2.7,2.7
		C78.4,118.2,79.6,119.4,81.1,119.4z"/>
	<path class="st1" d="M95.3,119.4c1.5,0,2.7-1.2,2.7-2.7c0-1.5-1.2-2.7-2.7-2.7c-1.5,0-2.7,1.2-2.7,2.7
		C92.6,118.2,93.8,119.4,95.3,119.4z"/>
	<path class="st1" d="M109.6,119.4c1.5,0,2.7-1.2,2.7-2.7c0-1.5-1.2-2.7-2.7-2.7c-1.5,0-2.7,1.2-2.7,2.7
		C106.9,118.2,108.1,119.4,109.6,119.4z"/>
	<path class="st1" d="M123.8,119.4c1.5,0,2.7-1.2,2.7-2.7c0-1.5-1.2-2.7-2.7-2.7c-1.5,0-2.7,1.2-2.7,2.7
		C121.1,118.2,122.3,119.4,123.8,119.4z"/>
	<path class="st1" d="M138.1,119.4c1.5,0,2.7-1.2,2.7-2.7c0-1.5-1.2-2.7-2.7-2.7c-1.5,0-2.7,1.2-2.7,2.7
		C135.4,118.2,136.6,119.4,138.1,119.4z"/>
	<path class="st1" d="M152.3,119.4c1.5,0,2.7-1.2,2.7-2.7c0-1.5-1.2-2.7-2.7-2.7c-1.5,0-2.7,1.2-2.7,2.7
		C149.6,118.2,150.8,119.4,152.3,119.4z"/>
	<path class="st1" d="M166.6,119.4c1.5,0,2.7-1.2,2.7-2.7c0-1.5-1.2-2.7-2.7-2.7c-1.5,0-2.7,1.2-2.7,2.7
		C163.9,118.2,165.1,119.4,166.6,119.4z"/>
	<path class="st1" d="M180.8,119.4c1.5,0,2.7-1.2,2.7-2.7c0-1.5-1.2-2.7-2.7-2.7c-1.5,0-2.7,1.2-2.7,2.7
		C178.1,118.2,179.3,119.4,180.8,119.4z"/>
	<path class="st1" d="M195.1,119.4c1.5,0,2.7-1.2,2.7-2.7c0-1.5-1.2-2.7-2.7-2.7c-1.5,0-2.7,1.2-2.7,2.7
		C192.4,118.2,193.6,119.4,195.1,119.4z"/>
	<path class="st1" d="M209.3,119.4c1.5,0,2.7-1.2,2.7-2.7c0-1.5-1.2-2.7-2.7-2.7c-1.5,0-2.7,1.2-2.7,2.7
		C206.6,118.2,207.9,119.4,209.3,119.4z"/>
	<path class="st1" d="M223.6,119.4c1.5,0,2.7-1.2,2.7-2.7c0-1.5-1.2-2.7-2.7-2.7c-1.5,0-2.7,1.2-2.7,2.7
		C220.9,118.2,222.1,119.4,223.6,119.4z"/>
	<path class="st1" d="M237.8,119.4c1.5,0,2.7-1.2,2.7-2.7c0-1.5-1.2-2.7-2.7-2.7c-1.5,0-2.7,1.2-2.7,2.7
		C235.1,118.2,236.4,119.4,237.8,119.4z"/>
	<path class="st1" d="M252.1,119.4c1.5,0,2.7-1.2,2.7-2.7c0-1.5-1.2-2.7-2.7-2.7c-1.5,0-2.7,1.2-2.7,2.7
		C249.4,118.2,250.6,119.4,252.1,119.4z"/>
	<path class="st1" d="M266.3,119.4c1.5,0,2.7-1.2,2.7-2.7c0-1.5-1.2-2.7-2.7-2.7c-1.5,0-2.7,1.2-2.7,2.7
		C263.6,118.2,264.9,119.4,266.3,119.4z"/>
	<path class="st1" d="M280.6,119.4c1.5,0,2.7-1.2,2.7-2.7c0-1.5-1.2-2.7-2.7-2.7c-1.5,0-2.7,1.2-2.7,2.7
		C277.9,118.2,279.1,119.4,280.6,119.4z"/>
	<path class="st1" d="M2.7,133.7c1.5,0,2.7-1.2,2.7-2.7c0-1.5-1.2-2.7-2.7-2.7c-1.5,0-2.7,1.2-2.7,2.7C0,132.5,1.2,133.7,2.7,133.7z
		"/>
	<path class="st1" d="M17,133.7c1.5,0,2.7-1.2,2.7-2.7c0-1.5-1.2-2.7-2.7-2.7c-1.5,0-2.7,1.2-2.7,2.7S15.5,133.7,17,133.7z"/>
	<path class="st1" d="M31.2,133.7c1.5,0,2.7-1.2,2.7-2.7c0-1.5-1.2-2.7-2.7-2.7c-1.5,0-2.7,1.2-2.7,2.7
		C28.5,132.5,29.7,133.7,31.2,133.7z"/>
	<path class="st1" d="M45.5,133.7c1.5,0,2.7-1.2,2.7-2.7s-1.2-2.7-2.7-2.7c-1.5,0-2.7,1.2-2.7,2.7C42.8,132.5,44,133.7,45.5,133.7z"
		/>
	<path class="st1" d="M59.7,133.7c1.5,0,2.7-1.2,2.7-2.7c0-1.5-1.2-2.7-2.7-2.7c-1.5,0-2.7,1.2-2.7,2.7
		C57,132.5,58.2,133.7,59.7,133.7z"/>
	<path class="st1" d="M74,133.7c1.5,0,2.7-1.2,2.7-2.7s-1.2-2.7-2.7-2.7c-1.5,0-2.7,1.2-2.7,2.7C71.3,132.5,72.5,133.7,74,133.7z"/>
	<path class="st1" d="M88.2,133.7c1.5,0,2.7-1.2,2.7-2.7s-1.2-2.7-2.7-2.7c-1.5,0-2.7,1.2-2.7,2.7C85.5,132.5,86.7,133.7,88.2,133.7
		z"/>
	<path class="st1" d="M102.5,133.7c1.5,0,2.7-1.2,2.7-2.7c0-1.5-1.2-2.7-2.7-2.7c-1.5,0-2.7,1.2-2.7,2.7
		C99.8,132.5,101,133.7,102.5,133.7z"/>
	<path class="st1" d="M116.7,133.7c1.5,0,2.7-1.2,2.7-2.7c0-1.5-1.2-2.7-2.7-2.7c-1.5,0-2.7,1.2-2.7,2.7
		C114,132.5,115.2,133.7,116.7,133.7z"/>
	<path class="st1" d="M131,133.7c1.5,0,2.7-1.2,2.7-2.7c0-1.5-1.2-2.7-2.7-2.7c-1.5,0-2.7,1.2-2.7,2.7S129.5,133.7,131,133.7z"/>
	<path class="st1" d="M145.2,133.7c1.5,0,2.7-1.2,2.7-2.7s-1.2-2.7-2.7-2.7c-1.5,0-2.7,1.2-2.7,2.7
		C142.5,132.5,143.7,133.7,145.2,133.7z"/>
	<path class="st1" d="M159.5,133.7c1.5,0,2.7-1.2,2.7-2.7c0-1.5-1.2-2.7-2.7-2.7c-1.5,0-2.7,1.2-2.7,2.7S158,133.7,159.5,133.7z"/>
	<path class="st1" d="M173.7,133.7c1.5,0,2.7-1.2,2.7-2.7c0-1.5-1.2-2.7-2.7-2.7c-1.5,0-2.7,1.2-2.7,2.7
		C171,132.5,172.2,133.7,173.7,133.7z"/>
	<path class="st1" d="M188,133.7c1.5,0,2.7-1.2,2.7-2.7c0-1.5-1.2-2.7-2.7-2.7c-1.5,0-2.7,1.2-2.7,2.7
		C185.3,132.5,186.5,133.7,188,133.7z"/>
	<path class="st1" d="M202.2,133.7c1.5,0,2.7-1.2,2.7-2.7c0-1.5-1.2-2.7-2.7-2.7c-1.5,0-2.7,1.2-2.7,2.7S200.7,133.7,202.2,133.7z"
		/>
	<path class="st1" d="M216.5,133.7c1.5,0,2.7-1.2,2.7-2.7s-1.2-2.7-2.7-2.7c-1.5,0-2.7,1.2-2.7,2.7
		C213.8,132.5,215,133.7,216.5,133.7z"/>
	<path class="st1" d="M230.7,133.7c1.5,0,2.7-1.2,2.7-2.7c0-1.5-1.2-2.7-2.7-2.7c-1.5,0-2.7,1.2-2.7,2.7S229.2,133.7,230.7,133.7z"
		/>
	<path class="st1" d="M245,133.7c1.5,0,2.7-1.2,2.7-2.7c0-1.5-1.2-2.7-2.7-2.7c-1.5,0-2.7,1.2-2.7,2.7S243.5,133.7,245,133.7z"/>
	<path class="st1" d="M259.2,133.7c1.5,0,2.7-1.2,2.7-2.7c0-1.5-1.2-2.7-2.7-2.7c-1.5,0-2.7,1.2-2.7,2.7S257.7,133.7,259.2,133.7z"
		/>
	<path class="st1" d="M273.5,133.7c1.5,0,2.7-1.2,2.7-2.7c0-1.5-1.2-2.7-2.7-2.7c-1.5,0-2.7,1.2-2.7,2.7S272,133.7,273.5,133.7z"/>
	<path class="st1" d="M9.8,147.9c1.5,0,2.7-1.2,2.7-2.7c0-1.5-1.2-2.7-2.7-2.7c-1.5,0-2.7,1.2-2.7,2.7
		C7.1,146.7,8.3,147.9,9.8,147.9z"/>
	<path class="st1" d="M24.1,147.9c1.5,0,2.7-1.2,2.7-2.7c0-1.5-1.2-2.7-2.7-2.7c-1.5,0-2.7,1.2-2.7,2.7
		C21.4,146.7,22.6,147.9,24.1,147.9z"/>
	<path class="st1" d="M38.3,147.9c1.5,0,2.7-1.2,2.7-2.7c0-1.5-1.2-2.7-2.7-2.7c-1.5,0-2.7,1.2-2.7,2.7
		C35.6,146.7,36.8,147.9,38.3,147.9z"/>
	<path class="st1" d="M52.6,147.9c1.5,0,2.7-1.2,2.7-2.7c0-1.5-1.2-2.7-2.7-2.7c-1.5,0-2.7,1.2-2.7,2.7
		C49.9,146.7,51.1,147.9,52.6,147.9z"/>
	<path class="st1" d="M66.8,147.9c1.5,0,2.7-1.2,2.7-2.7c0-1.5-1.2-2.7-2.7-2.7c-1.5,0-2.7,1.2-2.7,2.7
		C64.1,146.7,65.3,147.9,66.8,147.9z"/>
	<path class="st1" d="M81.1,147.9c1.5,0,2.7-1.2,2.7-2.7c0-1.5-1.2-2.7-2.7-2.7c-1.5,0-2.7,1.2-2.7,2.7
		C78.4,146.7,79.6,147.9,81.1,147.9z"/>
	<path class="st1" d="M95.3,147.9c1.5,0,2.7-1.2,2.7-2.7c0-1.5-1.2-2.7-2.7-2.7c-1.5,0-2.7,1.2-2.7,2.7
		C92.6,146.7,93.8,147.9,95.3,147.9z"/>
	<path class="st1" d="M109.6,147.9c1.5,0,2.7-1.2,2.7-2.7c0-1.5-1.2-2.7-2.7-2.7c-1.5,0-2.7,1.2-2.7,2.7
		C106.9,146.7,108.1,147.9,109.6,147.9z"/>
	<path class="st1" d="M123.8,147.9c1.5,0,2.7-1.2,2.7-2.7c0-1.5-1.2-2.7-2.7-2.7c-1.5,0-2.7,1.2-2.7,2.7
		C121.1,146.7,122.3,147.9,123.8,147.9z"/>
	<path class="st1" d="M138.1,147.9c1.5,0,2.7-1.2,2.7-2.7c0-1.5-1.2-2.7-2.7-2.7c-1.5,0-2.7,1.2-2.7,2.7
		C135.4,146.7,136.6,147.9,138.1,147.9z"/>
	<path class="st1" d="M152.3,147.9c1.5,0,2.7-1.2,2.7-2.7c0-1.5-1.2-2.7-2.7-2.7c-1.5,0-2.7,1.2-2.7,2.7
		C149.6,146.7,150.8,147.9,152.3,147.9z"/>
	<path class="st1" d="M166.6,147.9c1.5,0,2.7-1.2,2.7-2.7c0-1.5-1.2-2.7-2.7-2.7c-1.5,0-2.7,1.2-2.7,2.7
		C163.9,146.7,165.1,147.9,166.6,147.9z"/>
	<path class="st1" d="M180.8,147.9c1.5,0,2.7-1.2,2.7-2.7c0-1.5-1.2-2.7-2.7-2.7c-1.5,0-2.7,1.2-2.7,2.7
		C178.1,146.7,179.3,147.9,180.8,147.9z"/>
	<path class="st1" d="M195.1,147.9c1.5,0,2.7-1.2,2.7-2.7c0-1.5-1.2-2.7-2.7-2.7c-1.5,0-2.7,1.2-2.7,2.7
		C192.4,146.7,193.6,147.9,195.1,147.9z"/>
	<path class="st1" d="M209.3,147.9c1.5,0,2.7-1.2,2.7-2.7c0-1.5-1.2-2.7-2.7-2.7c-1.5,0-2.7,1.2-2.7,2.7
		C206.6,146.7,207.9,147.9,209.3,147.9z"/>
	<path class="st1" d="M223.6,147.9c1.5,0,2.7-1.2,2.7-2.7c0-1.5-1.2-2.7-2.7-2.7c-1.5,0-2.7,1.2-2.7,2.7
		C220.9,146.7,222.1,147.9,223.6,147.9z"/>
	<path class="st1" d="M237.8,147.9c1.5,0,2.7-1.2,2.7-2.7c0-1.5-1.2-2.7-2.7-2.7c-1.5,0-2.7,1.2-2.7,2.7
		C235.1,146.7,236.4,147.9,237.8,147.9z"/>
	<path class="st1" d="M252.1,147.9c1.5,0,2.7-1.2,2.7-2.7c0-1.5-1.2-2.7-2.7-2.7c-1.5,0-2.7,1.2-2.7,2.7
		C249.4,146.7,250.6,147.9,252.1,147.9z"/>
	<path class="st1" d="M266.3,147.9c1.5,0,2.7-1.2,2.7-2.7c0-1.5-1.2-2.7-2.7-2.7c-1.5,0-2.7,1.2-2.7,2.7
		C263.6,146.7,264.9,147.9,266.3,147.9z"/>
	<path class="st1" d="M280.6,147.9c1.5,0,2.7-1.2,2.7-2.7c0-1.5-1.2-2.7-2.7-2.7c-1.5,0-2.7,1.2-2.7,2.7
		C277.9,146.7,279.1,147.9,280.6,147.9z"/>
	<path class="st1" d="M2.7,162.2c1.5,0,2.7-1.2,2.7-2.7c0-1.5-1.2-2.7-2.7-2.7c-1.5,0-2.7,1.2-2.7,2.7C0,161,1.2,162.2,2.7,162.2z"
		/>
	<path class="st1" d="M17,162.2c1.5,0,2.7-1.2,2.7-2.7c0-1.5-1.2-2.7-2.7-2.7c-1.5,0-2.7,1.2-2.7,2.7C14.3,161,15.5,162.2,17,162.2z
		"/>
	<path class="st1" d="M31.2,162.2c1.5,0,2.7-1.2,2.7-2.7c0-1.5-1.2-2.7-2.7-2.7c-1.5,0-2.7,1.2-2.7,2.7
		C28.5,161,29.7,162.2,31.2,162.2z"/>
	<path class="st1" d="M45.5,162.2c1.5,0,2.7-1.2,2.7-2.7c0-1.5-1.2-2.7-2.7-2.7c-1.5,0-2.7,1.2-2.7,2.7
		C42.8,161,44,162.2,45.5,162.2z"/>
	<path class="st1" d="M59.7,162.2c1.5,0,2.7-1.2,2.7-2.7c0-1.5-1.2-2.7-2.7-2.7c-1.5,0-2.7,1.2-2.7,2.7
		C57,161,58.2,162.2,59.7,162.2z"/>
	<path class="st1" d="M74,162.2c1.5,0,2.7-1.2,2.7-2.7s-1.2-2.7-2.7-2.7c-1.5,0-2.7,1.2-2.7,2.7C71.3,161,72.5,162.2,74,162.2z"/>
	<path class="st1" d="M88.2,162.2c1.5,0,2.7-1.2,2.7-2.7c0-1.5-1.2-2.7-2.7-2.7c-1.5,0-2.7,1.2-2.7,2.7
		C85.5,161,86.7,162.2,88.2,162.2z"/>
	<path class="st1" d="M102.5,162.2c1.5,0,2.7-1.2,2.7-2.7c0-1.5-1.2-2.7-2.7-2.7c-1.5,0-2.7,1.2-2.7,2.7
		C99.8,161,101,162.2,102.5,162.2z"/>
	<path class="st1" d="M116.7,162.2c1.5,0,2.7-1.2,2.7-2.7c0-1.5-1.2-2.7-2.7-2.7c-1.5,0-2.7,1.2-2.7,2.7
		C114,161,115.2,162.2,116.7,162.2z"/>
	<path class="st1" d="M131,162.2c1.5,0,2.7-1.2,2.7-2.7c0-1.5-1.2-2.7-2.7-2.7c-1.5,0-2.7,1.2-2.7,2.7
		C128.3,161,129.5,162.2,131,162.2z"/>
	<path class="st1" d="M145.2,162.2c1.5,0,2.7-1.2,2.7-2.7s-1.2-2.7-2.7-2.7c-1.5,0-2.7,1.2-2.7,2.7
		C142.5,161,143.7,162.2,145.2,162.2z"/>
	<path class="st1" d="M159.5,162.2c1.5,0,2.7-1.2,2.7-2.7c0-1.5-1.2-2.7-2.7-2.7c-1.5,0-2.7,1.2-2.7,2.7
		C156.8,161,158,162.2,159.5,162.2z"/>
	<path class="st1" d="M173.7,162.2c1.5,0,2.7-1.2,2.7-2.7c0-1.5-1.2-2.7-2.7-2.7c-1.5,0-2.7,1.2-2.7,2.7
		C171,161,172.2,162.2,173.7,162.2z"/>
	<path class="st1" d="M188,162.2c1.5,0,2.7-1.2,2.7-2.7c0-1.5-1.2-2.7-2.7-2.7c-1.5,0-2.7,1.2-2.7,2.7
		C185.3,161,186.5,162.2,188,162.2z"/>
	<path class="st1" d="M202.2,162.2c1.5,0,2.7-1.2,2.7-2.7c0-1.5-1.2-2.7-2.7-2.7c-1.5,0-2.7,1.2-2.7,2.7
		C199.5,161,200.7,162.2,202.2,162.2z"/>
	<path class="st1" d="M216.5,162.2c1.5,0,2.7-1.2,2.7-2.7c0-1.5-1.2-2.7-2.7-2.7c-1.5,0-2.7,1.2-2.7,2.7
		C213.8,161,215,162.2,216.5,162.2z"/>
	<path class="st1" d="M230.7,162.2c1.5,0,2.7-1.2,2.7-2.7c0-1.5-1.2-2.7-2.7-2.7c-1.5,0-2.7,1.2-2.7,2.7S229.2,162.2,230.7,162.2z"
		/>
	<path class="st1" d="M245,162.2c1.5,0,2.7-1.2,2.7-2.7c0-1.5-1.2-2.7-2.7-2.7c-1.5,0-2.7,1.2-2.7,2.7
		C242.3,161,243.5,162.2,245,162.2z"/>
	<path class="st1" d="M259.2,162.2c1.5,0,2.7-1.2,2.7-2.7c0-1.5-1.2-2.7-2.7-2.7c-1.5,0-2.7,1.2-2.7,2.7
		C256.5,161,257.7,162.2,259.2,162.2z"/>
	<path class="st1" d="M273.5,162.2c1.5,0,2.7-1.2,2.7-2.7c0-1.5-1.2-2.7-2.7-2.7c-1.5,0-2.7,1.2-2.7,2.7S272,162.2,273.5,162.2z"/>
	<path class="st1" d="M9.8,176.4c1.5,0,2.7-1.2,2.7-2.7c0-1.5-1.2-2.7-2.7-2.7c-1.5,0-2.7,1.2-2.7,2.7
		C7.1,175.2,8.3,176.4,9.8,176.4z"/>
	<path class="st1" d="M24.1,176.4c1.5,0,2.7-1.2,2.7-2.7c0-1.5-1.2-2.7-2.7-2.7c-1.5,0-2.7,1.2-2.7,2.7
		C21.4,175.2,22.6,176.4,24.1,176.4z"/>
	<path class="st1" d="M38.3,176.4c1.5,0,2.7-1.2,2.7-2.7c0-1.5-1.2-2.7-2.7-2.7c-1.5,0-2.7,1.2-2.7,2.7S36.8,176.4,38.3,176.4z"/>
	<path class="st1" d="M52.6,176.4c1.5,0,2.7-1.2,2.7-2.7c0-1.5-1.2-2.7-2.7-2.7c-1.5,0-2.7,1.2-2.7,2.7
		C49.9,175.2,51.1,176.4,52.6,176.4z"/>
	<path class="st1" d="M66.8,176.4c1.5,0,2.7-1.2,2.7-2.7c0-1.5-1.2-2.7-2.7-2.7c-1.5,0-2.7,1.2-2.7,2.7
		C64.1,175.2,65.3,176.4,66.8,176.4z"/>
	<path class="st1" d="M81.1,176.4c1.5,0,2.7-1.2,2.7-2.7c0-1.5-1.2-2.7-2.7-2.7c-1.5,0-2.7,1.2-2.7,2.7
		C78.4,175.2,79.6,176.4,81.1,176.4z"/>
	<path class="st1" d="M95.3,176.4c1.5,0,2.7-1.2,2.7-2.7c0-1.5-1.2-2.7-2.7-2.7c-1.5,0-2.7,1.2-2.7,2.7
		C92.6,175.2,93.8,176.4,95.3,176.4z"/>
	<path class="st1" d="M109.6,176.4c1.5,0,2.7-1.2,2.7-2.7c0-1.5-1.2-2.7-2.7-2.7c-1.5,0-2.7,1.2-2.7,2.7
		C106.9,175.2,108.1,176.4,109.6,176.4z"/>
	<path class="st1" d="M123.8,176.4c1.5,0,2.7-1.2,2.7-2.7s-1.2-2.7-2.7-2.7c-1.5,0-2.7,1.2-2.7,2.7
		C121.1,175.2,122.3,176.4,123.8,176.4z"/>
	<path class="st1" d="M138.1,176.4c1.5,0,2.7-1.2,2.7-2.7s-1.2-2.7-2.7-2.7c-1.5,0-2.7,1.2-2.7,2.7
		C135.4,175.2,136.6,176.4,138.1,176.4z"/>
	<path class="st1" d="M152.3,176.4c1.5,0,2.7-1.2,2.7-2.7s-1.2-2.7-2.7-2.7c-1.5,0-2.7,1.2-2.7,2.7
		C149.6,175.2,150.8,176.4,152.3,176.4z"/>
	<path class="st1" d="M166.6,176.4c1.5,0,2.7-1.2,2.7-2.7s-1.2-2.7-2.7-2.7c-1.5,0-2.7,1.2-2.7,2.7
		C163.9,175.2,165.1,176.4,166.6,176.4z"/>
	<path class="st1" d="M180.8,176.4c1.5,0,2.7-1.2,2.7-2.7c0-1.5-1.2-2.7-2.7-2.7c-1.5,0-2.7,1.2-2.7,2.7
		C178.1,175.2,179.3,176.4,180.8,176.4z"/>
	<path class="st1" d="M195.1,176.4c1.5,0,2.7-1.2,2.7-2.7c0-1.5-1.2-2.7-2.7-2.7c-1.5,0-2.7,1.2-2.7,2.7
		C192.4,175.2,193.6,176.4,195.1,176.4z"/>
	<path class="st1" d="M209.3,176.4c1.5,0,2.7-1.2,2.7-2.7s-1.2-2.7-2.7-2.7c-1.5,0-2.7,1.2-2.7,2.7
		C206.6,175.2,207.9,176.4,209.3,176.4z"/>
	<path class="st1" d="M223.6,176.4c1.5,0,2.7-1.2,2.7-2.7c0-1.5-1.2-2.7-2.7-2.7c-1.5,0-2.7,1.2-2.7,2.7
		C220.9,175.2,222.1,176.4,223.6,176.4z"/>
	<path class="st1" d="M237.8,176.4c1.5,0,2.7-1.2,2.7-2.7s-1.2-2.7-2.7-2.7c-1.5,0-2.7,1.2-2.7,2.7
		C235.1,175.2,236.4,176.4,237.8,176.4z"/>
	<path class="st1" d="M252.1,176.4c1.5,0,2.7-1.2,2.7-2.7c0-1.5-1.2-2.7-2.7-2.7c-1.5,0-2.7,1.2-2.7,2.7S250.6,176.4,252.1,176.4z"
		/>
	<path class="st1" d="M266.3,176.4c1.5,0,2.7-1.2,2.7-2.7s-1.2-2.7-2.7-2.7c-1.5,0-2.7,1.2-2.7,2.7
		C263.6,175.2,264.9,176.4,266.3,176.4z"/>
	<path class="st1" d="M280.6,176.4c1.5,0,2.7-1.2,2.7-2.7s-1.2-2.7-2.7-2.7c-1.5,0-2.7,1.2-2.7,2.7
		C277.9,175.2,279.1,176.4,280.6,176.4z"/>
	<path class="st1" d="M2.7,190.7c1.5,0,2.7-1.2,2.7-2.7c0-1.5-1.2-2.7-2.7-2.7c-1.5,0-2.7,1.2-2.7,2.7C0,189.5,1.2,190.7,2.7,190.7z
		"/>
	<path class="st1" d="M17,190.7c1.5,0,2.7-1.2,2.7-2.7s-1.2-2.7-2.7-2.7c-1.5,0-2.7,1.2-2.7,2.7S15.5,190.7,17,190.7z"/>
	<path class="st1" d="M31.2,190.7c1.5,0,2.7-1.2,2.7-2.7s-1.2-2.7-2.7-2.7c-1.5,0-2.7,1.2-2.7,2.7S29.7,190.7,31.2,190.7z"/>
	<path class="st1" d="M45.5,190.7c1.5,0,2.7-1.2,2.7-2.7s-1.2-2.7-2.7-2.7c-1.5,0-2.7,1.2-2.7,2.7C42.8,189.5,44,190.7,45.5,190.7z"
		/>
	<path class="st1" d="M59.7,190.7c1.5,0,2.7-1.2,2.7-2.7s-1.2-2.7-2.7-2.7c-1.5,0-2.7,1.2-2.7,2.7S58.2,190.7,59.7,190.7z"/>
	<path class="st1" d="M74,190.7c1.5,0,2.7-1.2,2.7-2.7s-1.2-2.7-2.7-2.7c-1.5,0-2.7,1.2-2.7,2.7C71.3,189.5,72.5,190.7,74,190.7z"/>
	<path class="st1" d="M88.2,190.7c1.5,0,2.7-1.2,2.7-2.7s-1.2-2.7-2.7-2.7c-1.5,0-2.7,1.2-2.7,2.7C85.5,189.5,86.7,190.7,88.2,190.7
		z"/>
	<path class="st1" d="M102.5,190.7c1.5,0,2.7-1.2,2.7-2.7s-1.2-2.7-2.7-2.7c-1.5,0-2.7,1.2-2.7,2.7S101,190.7,102.5,190.7z"/>
	<path class="st1" d="M116.7,190.7c1.5,0,2.7-1.2,2.7-2.7s-1.2-2.7-2.7-2.7c-1.5,0-2.7,1.2-2.7,2.7S115.2,190.7,116.7,190.7z"/>
	<path class="st1" d="M131,190.7c1.5,0,2.7-1.2,2.7-2.7s-1.2-2.7-2.7-2.7c-1.5,0-2.7,1.2-2.7,2.7S129.5,190.7,131,190.7z"/>
	<path class="st1" d="M145.2,190.7c1.5,0,2.7-1.2,2.7-2.7s-1.2-2.7-2.7-2.7c-1.5,0-2.7,1.2-2.7,2.7
		C142.5,189.5,143.7,190.7,145.2,190.7z"/>
	<path class="st1" d="M159.5,190.7c1.5,0,2.7-1.2,2.7-2.7c0-1.5-1.2-2.7-2.7-2.7c-1.5,0-2.7,1.2-2.7,2.7S158,190.7,159.5,190.7z"/>
	<path class="st1" d="M173.7,190.7c1.5,0,2.7-1.2,2.7-2.7c0-1.5-1.2-2.7-2.7-2.7c-1.5,0-2.7,1.2-2.7,2.7
		C171,189.5,172.2,190.7,173.7,190.7z"/>
	<path class="st1" d="M188,190.7c1.5,0,2.7-1.2,2.7-2.7s-1.2-2.7-2.7-2.7c-1.5,0-2.7,1.2-2.7,2.7S186.5,190.7,188,190.7z"/>
	<path class="st1" d="M202.2,190.7c1.5,0,2.7-1.2,2.7-2.7c0-1.5-1.2-2.7-2.7-2.7c-1.5,0-2.7,1.2-2.7,2.7S200.7,190.7,202.2,190.7z"
		/>
	<path class="st1" d="M216.5,190.7c1.5,0,2.7-1.2,2.7-2.7s-1.2-2.7-2.7-2.7c-1.5,0-2.7,1.2-2.7,2.7S215,190.7,216.5,190.7z"/>
	<path class="st1" d="M230.7,190.7c1.5,0,2.7-1.2,2.7-2.7c0-1.5-1.2-2.7-2.7-2.7c-1.5,0-2.7,1.2-2.7,2.7S229.2,190.7,230.7,190.7z"
		/>
	<path class="st1" d="M245,190.7c1.5,0,2.7-1.2,2.7-2.7c0-1.5-1.2-2.7-2.7-2.7c-1.5,0-2.7,1.2-2.7,2.7S243.5,190.7,245,190.7z"/>
	<path class="st1" d="M259.2,190.7c1.5,0,2.7-1.2,2.7-2.7s-1.2-2.7-2.7-2.7c-1.5,0-2.7,1.2-2.7,2.7S257.7,190.7,259.2,190.7z"/>
	<path class="st1" d="M273.5,190.7c1.5,0,2.7-1.2,2.7-2.7c0-1.5-1.2-2.7-2.7-2.7c-1.5,0-2.7,1.2-2.7,2.7S272,190.7,273.5,190.7z"/>
	<path class="st1" d="M9.8,204.9c1.5,0,2.7-1.2,2.7-2.7c0-1.5-1.2-2.7-2.7-2.7c-1.5,0-2.7,1.2-2.7,2.7
		C7.1,203.7,8.3,204.9,9.8,204.9z"/>
	<path class="st1" d="M24.1,204.9c1.5,0,2.7-1.2,2.7-2.7c0-1.5-1.2-2.7-2.7-2.7c-1.5,0-2.7,1.2-2.7,2.7
		C21.4,203.7,22.6,204.9,24.1,204.9z"/>
	<path class="st1" d="M38.3,204.9c1.5,0,2.7-1.2,2.7-2.7c0-1.5-1.2-2.7-2.7-2.7c-1.5,0-2.7,1.2-2.7,2.7
		C35.6,203.7,36.8,204.9,38.3,204.9z"/>
	<path class="st1" d="M52.6,204.9c1.5,0,2.7-1.2,2.7-2.7c0-1.5-1.2-2.7-2.7-2.7c-1.5,0-2.7,1.2-2.7,2.7
		C49.9,203.7,51.1,204.9,52.6,204.9z"/>
	<path class="st1" d="M66.8,204.9c1.5,0,2.7-1.2,2.7-2.7c0-1.5-1.2-2.7-2.7-2.7c-1.5,0-2.7,1.2-2.7,2.7
		C64.1,203.7,65.3,204.9,66.8,204.9z"/>
	<path class="st1" d="M81.1,204.9c1.5,0,2.7-1.2,2.7-2.7c0-1.5-1.2-2.7-2.7-2.7c-1.5,0-2.7,1.2-2.7,2.7
		C78.4,203.7,79.6,204.9,81.1,204.9z"/>
	<path class="st1" d="M95.3,204.9c1.5,0,2.7-1.2,2.7-2.7c0-1.5-1.2-2.7-2.7-2.7c-1.5,0-2.7,1.2-2.7,2.7
		C92.6,203.7,93.8,204.9,95.3,204.9z"/>
	<path class="st1" d="M109.6,204.9c1.5,0,2.7-1.2,2.7-2.7c0-1.5-1.2-2.7-2.7-2.7c-1.5,0-2.7,1.2-2.7,2.7
		C106.9,203.7,108.1,204.9,109.6,204.9z"/>
	<path class="st1" d="M123.8,204.9c1.5,0,2.7-1.2,2.7-2.7c0-1.5-1.2-2.7-2.7-2.7c-1.5,0-2.7,1.2-2.7,2.7
		C121.1,203.7,122.3,204.9,123.8,204.9z"/>
	<path class="st1" d="M138.1,204.9c1.5,0,2.7-1.2,2.7-2.7c0-1.5-1.2-2.7-2.7-2.7c-1.5,0-2.7,1.2-2.7,2.7
		C135.4,203.7,136.6,204.9,138.1,204.9z"/>
	<path class="st1" d="M152.3,204.9c1.5,0,2.7-1.2,2.7-2.7c0-1.5-1.2-2.7-2.7-2.7c-1.5,0-2.7,1.2-2.7,2.7
		C149.6,203.7,150.8,204.9,152.3,204.9z"/>
	<path class="st1" d="M166.6,204.9c1.5,0,2.7-1.2,2.7-2.7c0-1.5-1.2-2.7-2.7-2.7c-1.5,0-2.7,1.2-2.7,2.7
		C163.9,203.7,165.1,204.9,166.6,204.9z"/>
	<path class="st1" d="M180.8,204.9c1.5,0,2.7-1.2,2.7-2.7c0-1.5-1.2-2.7-2.7-2.7c-1.5,0-2.7,1.2-2.7,2.7
		C178.1,203.7,179.3,204.9,180.8,204.9z"/>
	<path class="st1" d="M195.1,204.9c1.5,0,2.7-1.2,2.7-2.7c0-1.5-1.2-2.7-2.7-2.7c-1.5,0-2.7,1.2-2.7,2.7
		C192.4,203.7,193.6,204.9,195.1,204.9z"/>
	<path class="st1" d="M209.3,204.9c1.5,0,2.7-1.2,2.7-2.7c0-1.5-1.2-2.7-2.7-2.7c-1.5,0-2.7,1.2-2.7,2.7
		C206.6,203.7,207.9,204.9,209.3,204.9z"/>
	<path class="st1" d="M223.6,204.9c1.5,0,2.7-1.2,2.7-2.7c0-1.5-1.2-2.7-2.7-2.7c-1.5,0-2.7,1.2-2.7,2.7
		C220.9,203.7,222.1,204.9,223.6,204.9z"/>
	<path class="st1" d="M237.8,204.9c1.5,0,2.7-1.2,2.7-2.7c0-1.5-1.2-2.7-2.7-2.7c-1.5,0-2.7,1.2-2.7,2.7
		C235.1,203.7,236.4,204.9,237.8,204.9z"/>
	<path class="st1" d="M252.1,204.9c1.5,0,2.7-1.2,2.7-2.7c0-1.5-1.2-2.7-2.7-2.7c-1.5,0-2.7,1.2-2.7,2.7
		C249.4,203.7,250.6,204.9,252.1,204.9z"/>
	<path class="st1" d="M266.3,204.9c1.5,0,2.7-1.2,2.7-2.7c0-1.5-1.2-2.7-2.7-2.7c-1.5,0-2.7,1.2-2.7,2.7
		C263.6,203.7,264.9,204.9,266.3,204.9z"/>
	<path class="st1" d="M280.6,204.9c1.5,0,2.7-1.2,2.7-2.7c0-1.5-1.2-2.7-2.7-2.7c-1.5,0-2.7,1.2-2.7,2.7
		C277.9,203.7,279.1,204.9,280.6,204.9z"/>
	<path class="st1" d="M2.7,219.2c1.5,0,2.7-1.2,2.7-2.7c0-1.5-1.2-2.7-2.7-2.7c-1.5,0-2.7,1.2-2.7,2.7C0,218,1.2,219.2,2.7,219.2z"
		/>
	<path class="st1" d="M17,219.2c1.5,0,2.7-1.2,2.7-2.7c0-1.5-1.2-2.7-2.7-2.7c-1.5,0-2.7,1.2-2.7,2.7C14.3,218,15.5,219.2,17,219.2z
		"/>
	<path class="st1" d="M31.2,219.2c1.5,0,2.7-1.2,2.7-2.7c0-1.5-1.2-2.7-2.7-2.7c-1.5,0-2.7,1.2-2.7,2.7
		C28.5,218,29.7,219.2,31.2,219.2z"/>
	<path class="st1" d="M45.5,219.2c1.5,0,2.7-1.2,2.7-2.7c0-1.5-1.2-2.7-2.7-2.7c-1.5,0-2.7,1.2-2.7,2.7
		C42.8,218,44,219.2,45.5,219.2z"/>
	<path class="st1" d="M59.7,219.2c1.5,0,2.7-1.2,2.7-2.7c0-1.5-1.2-2.7-2.7-2.7c-1.5,0-2.7,1.2-2.7,2.7
		C57,218,58.2,219.2,59.7,219.2z"/>
	<path class="st1" d="M74,219.2c1.5,0,2.7-1.2,2.7-2.7c0-1.5-1.2-2.7-2.7-2.7c-1.5,0-2.7,1.2-2.7,2.7C71.3,218,72.5,219.2,74,219.2z
		"/>
	<path class="st1" d="M88.2,219.2c1.5,0,2.7-1.2,2.7-2.7c0-1.5-1.2-2.7-2.7-2.7c-1.5,0-2.7,1.2-2.7,2.7
		C85.5,218,86.7,219.2,88.2,219.2z"/>
	<path class="st1" d="M102.5,219.2c1.5,0,2.7-1.2,2.7-2.7c0-1.5-1.2-2.7-2.7-2.7c-1.5,0-2.7,1.2-2.7,2.7
		C99.8,218,101,219.2,102.5,219.2z"/>
	<path class="st1" d="M116.7,219.2c1.5,0,2.7-1.2,2.7-2.7c0-1.5-1.2-2.7-2.7-2.7c-1.5,0-2.7,1.2-2.7,2.7
		C114,218,115.2,219.2,116.7,219.2z"/>
	<path class="st1" d="M131,219.2c1.5,0,2.7-1.2,2.7-2.7c0-1.5-1.2-2.7-2.7-2.7c-1.5,0-2.7,1.2-2.7,2.7
		C128.3,218,129.5,219.2,131,219.2z"/>
	<path class="st1" d="M145.2,219.2c1.5,0,2.7-1.2,2.7-2.7c0-1.5-1.2-2.7-2.7-2.7c-1.5,0-2.7,1.2-2.7,2.7
		C142.5,218,143.7,219.2,145.2,219.2z"/>
	<path class="st1" d="M159.5,219.2c1.5,0,2.7-1.2,2.7-2.7c0-1.5-1.2-2.7-2.7-2.7c-1.5,0-2.7,1.2-2.7,2.7
		C156.8,218,158,219.2,159.5,219.2z"/>
	<path class="st1" d="M173.7,219.2c1.5,0,2.7-1.2,2.7-2.7c0-1.5-1.2-2.7-2.7-2.7c-1.5,0-2.7,1.2-2.7,2.7
		C171,218,172.2,219.2,173.7,219.2z"/>
	<path class="st1" d="M188,219.2c1.5,0,2.7-1.2,2.7-2.7c0-1.5-1.2-2.7-2.7-2.7c-1.5,0-2.7,1.2-2.7,2.7
		C185.3,218,186.5,219.2,188,219.2z"/>
	<path class="st1" d="M202.2,219.2c1.5,0,2.7-1.2,2.7-2.7c0-1.5-1.2-2.7-2.7-2.7c-1.5,0-2.7,1.2-2.7,2.7
		C199.5,218,200.7,219.2,202.2,219.2z"/>
	<path class="st1" d="M216.5,219.2c1.5,0,2.7-1.2,2.7-2.7c0-1.5-1.2-2.7-2.7-2.7c-1.5,0-2.7,1.2-2.7,2.7
		C213.8,218,215,219.2,216.5,219.2z"/>
	<path class="st1" d="M230.7,219.2c1.5,0,2.7-1.2,2.7-2.7c0-1.5-1.2-2.7-2.7-2.7c-1.5,0-2.7,1.2-2.7,2.7
		C228,218,229.2,219.2,230.7,219.2z"/>
	<path class="st1" d="M245,219.2c1.5,0,2.7-1.2,2.7-2.7c0-1.5-1.2-2.7-2.7-2.7c-1.5,0-2.7,1.2-2.7,2.7
		C242.3,218,243.5,219.2,245,219.2z"/>
	<path class="st1" d="M259.2,219.2c1.5,0,2.7-1.2,2.7-2.7c0-1.5-1.2-2.7-2.7-2.7c-1.5,0-2.7,1.2-2.7,2.7
		C256.5,218,257.7,219.2,259.2,219.2z"/>
	<path class="st1" d="M273.5,219.2c1.5,0,2.7-1.2,2.7-2.7c0-1.5-1.2-2.7-2.7-2.7c-1.5,0-2.7,1.2-2.7,2.7
		C270.8,218,272,219.2,273.5,219.2z"/>
	<path class="st1" d="M9.8,233.4c1.5,0,2.7-1.2,2.7-2.7c0-1.5-1.2-2.7-2.7-2.7c-1.5,0-2.7,1.2-2.7,2.7
		C7.1,232.2,8.3,233.4,9.8,233.4z"/>
	<path class="st1" d="M24.1,233.4c1.5,0,2.7-1.2,2.7-2.7c0-1.5-1.2-2.7-2.7-2.7c-1.5,0-2.7,1.2-2.7,2.7
		C21.4,232.2,22.6,233.4,24.1,233.4z"/>
	<path class="st1" d="M38.3,233.4c1.5,0,2.7-1.2,2.7-2.7c0-1.5-1.2-2.7-2.7-2.7c-1.5,0-2.7,1.2-2.7,2.7
		C35.6,232.2,36.8,233.4,38.3,233.4z"/>
	<path class="st1" d="M52.6,233.4c1.5,0,2.7-1.2,2.7-2.7c0-1.5-1.2-2.7-2.7-2.7c-1.5,0-2.7,1.2-2.7,2.7
		C49.9,232.2,51.1,233.4,52.6,233.4z"/>
	<path class="st1" d="M66.8,233.4c1.5,0,2.7-1.2,2.7-2.7c0-1.5-1.2-2.7-2.7-2.7c-1.5,0-2.7,1.2-2.7,2.7
		C64.1,232.2,65.3,233.4,66.8,233.4z"/>
	<path class="st1" d="M81.1,233.4c1.5,0,2.7-1.2,2.7-2.7c0-1.5-1.2-2.7-2.7-2.7c-1.5,0-2.7,1.2-2.7,2.7
		C78.4,232.2,79.6,233.4,81.1,233.4z"/>
	<path class="st1" d="M95.3,233.4c1.5,0,2.7-1.2,2.7-2.7c0-1.5-1.2-2.7-2.7-2.7c-1.5,0-2.7,1.2-2.7,2.7
		C92.6,232.2,93.8,233.4,95.3,233.4z"/>
	<path class="st1" d="M109.6,233.4c1.5,0,2.7-1.2,2.7-2.7c0-1.5-1.2-2.7-2.7-2.7c-1.5,0-2.7,1.2-2.7,2.7
		C106.9,232.2,108.1,233.4,109.6,233.4z"/>
	<path class="st1" d="M123.8,233.4c1.5,0,2.7-1.2,2.7-2.7s-1.2-2.7-2.7-2.7c-1.5,0-2.7,1.2-2.7,2.7
		C121.1,232.2,122.3,233.4,123.8,233.4z"/>
	<path class="st1" d="M138.1,233.4c1.5,0,2.7-1.2,2.7-2.7s-1.2-2.7-2.7-2.7c-1.5,0-2.7,1.2-2.7,2.7
		C135.4,232.2,136.6,233.4,138.1,233.4z"/>
	<path class="st1" d="M152.3,233.4c1.5,0,2.7-1.2,2.7-2.7c0-1.5-1.2-2.7-2.7-2.7c-1.5,0-2.7,1.2-2.7,2.7
		C149.6,232.2,150.8,233.4,152.3,233.4z"/>
	<path class="st1" d="M166.6,233.4c1.5,0,2.7-1.2,2.7-2.7s-1.2-2.7-2.7-2.7c-1.5,0-2.7,1.2-2.7,2.7
		C163.9,232.2,165.1,233.4,166.6,233.4z"/>
	<path class="st1" d="M180.8,233.4c1.5,0,2.7-1.2,2.7-2.7c0-1.5-1.2-2.7-2.7-2.7c-1.5,0-2.7,1.2-2.7,2.7
		C178.1,232.2,179.3,233.4,180.8,233.4z"/>
	<path class="st1" d="M195.1,233.4c1.5,0,2.7-1.2,2.7-2.7s-1.2-2.7-2.7-2.7c-1.5,0-2.7,1.2-2.7,2.7
		C192.4,232.2,193.6,233.4,195.1,233.4z"/>
	<path class="st1" d="M209.3,233.4c1.5,0,2.7-1.2,2.7-2.7s-1.2-2.7-2.7-2.7c-1.5,0-2.7,1.2-2.7,2.7
		C206.6,232.2,207.9,233.4,209.3,233.4z"/>
	<path class="st1" d="M223.6,233.4c1.5,0,2.7-1.2,2.7-2.7c0-1.5-1.2-2.7-2.7-2.7c-1.5,0-2.7,1.2-2.7,2.7
		C220.9,232.2,222.1,233.4,223.6,233.4z"/>
	<path class="st1" d="M237.8,233.4c1.5,0,2.7-1.2,2.7-2.7s-1.2-2.7-2.7-2.7c-1.5,0-2.7,1.2-2.7,2.7
		C235.1,232.2,236.4,233.4,237.8,233.4z"/>
	<path class="st1" d="M252.1,233.4c1.5,0,2.7-1.2,2.7-2.7c0-1.5-1.2-2.7-2.7-2.7c-1.5,0-2.7,1.2-2.7,2.7S250.6,233.4,252.1,233.4z"
		/>
	<path class="st1" d="M266.3,233.4c1.5,0,2.7-1.2,2.7-2.7c0-1.5-1.2-2.7-2.7-2.7c-1.5,0-2.7,1.2-2.7,2.7
		C263.6,232.2,264.9,233.4,266.3,233.4z"/>
	<path class="st1" d="M280.6,233.4c1.5,0,2.7-1.2,2.7-2.7s-1.2-2.7-2.7-2.7c-1.5,0-2.7,1.2-2.7,2.7
		C277.9,232.2,279.1,233.4,280.6,233.4z"/>
	<path class="st1" d="M2.7,247.7c1.5,0,2.7-1.2,2.7-2.7c0-1.5-1.2-2.7-2.7-2.7c-1.5,0-2.7,1.2-2.7,2.7C0,246.5,1.2,247.7,2.7,247.7z
		"/>
	<path class="st1" d="M17,247.7c1.5,0,2.7-1.2,2.7-2.7c0-1.5-1.2-2.7-2.7-2.7c-1.5,0-2.7,1.2-2.7,2.7
		C14.3,246.5,15.5,247.7,17,247.7z"/>
	<path class="st1" d="M31.2,247.7c1.5,0,2.7-1.2,2.7-2.7c0-1.5-1.2-2.7-2.7-2.7c-1.5,0-2.7,1.2-2.7,2.7
		C28.5,246.5,29.7,247.7,31.2,247.7z"/>
	<path class="st1" d="M45.5,247.7c1.5,0,2.7-1.2,2.7-2.7c0-1.5-1.2-2.7-2.7-2.7c-1.5,0-2.7,1.2-2.7,2.7
		C42.8,246.5,44,247.7,45.5,247.7z"/>
	<path class="st1" d="M59.7,247.7c1.5,0,2.7-1.2,2.7-2.7c0-1.5-1.2-2.7-2.7-2.7c-1.5,0-2.7,1.2-2.7,2.7
		C57,246.5,58.2,247.7,59.7,247.7z"/>
	<path class="st1" d="M74,247.7c1.5,0,2.7-1.2,2.7-2.7c0-1.5-1.2-2.7-2.7-2.7c-1.5,0-2.7,1.2-2.7,2.7
		C71.3,246.5,72.5,247.7,74,247.7z"/>
	<path class="st1" d="M88.2,247.7c1.5,0,2.7-1.2,2.7-2.7c0-1.5-1.2-2.7-2.7-2.7c-1.5,0-2.7,1.2-2.7,2.7
		C85.5,246.5,86.7,247.7,88.2,247.7z"/>
	<path class="st1" d="M102.5,247.7c1.5,0,2.7-1.2,2.7-2.7c0-1.5-1.2-2.7-2.7-2.7c-1.5,0-2.7,1.2-2.7,2.7
		C99.8,246.5,101,247.7,102.5,247.7z"/>
	<path class="st1" d="M116.7,247.7c1.5,0,2.7-1.2,2.7-2.7c0-1.5-1.2-2.7-2.7-2.7c-1.5,0-2.7,1.2-2.7,2.7
		C114,246.5,115.2,247.7,116.7,247.7z"/>
	<path class="st1" d="M131,247.7c1.5,0,2.7-1.2,2.7-2.7c0-1.5-1.2-2.7-2.7-2.7c-1.5,0-2.7,1.2-2.7,2.7
		C128.3,246.5,129.5,247.7,131,247.7z"/>
	<path class="st1" d="M145.2,247.7c1.5,0,2.7-1.2,2.7-2.7c0-1.5-1.2-2.7-2.7-2.7c-1.5,0-2.7,1.2-2.7,2.7
		C142.5,246.5,143.7,247.7,145.2,247.7z"/>
	<path class="st1" d="M159.5,247.7c1.5,0,2.7-1.2,2.7-2.7c0-1.5-1.2-2.7-2.7-2.7c-1.5,0-2.7,1.2-2.7,2.7
		C156.8,246.5,158,247.7,159.5,247.7z"/>
	<path class="st1" d="M173.7,247.7c1.5,0,2.7-1.2,2.7-2.7c0-1.5-1.2-2.7-2.7-2.7c-1.5,0-2.7,1.2-2.7,2.7
		C171,246.5,172.2,247.7,173.7,247.7z"/>
	<path class="st1" d="M188,247.7c1.5,0,2.7-1.2,2.7-2.7c0-1.5-1.2-2.7-2.7-2.7c-1.5,0-2.7,1.2-2.7,2.7
		C185.3,246.5,186.5,247.7,188,247.7z"/>
	<path class="st1" d="M202.2,247.7c1.5,0,2.7-1.2,2.7-2.7c0-1.5-1.2-2.7-2.7-2.7c-1.5,0-2.7,1.2-2.7,2.7
		C199.5,246.5,200.7,247.7,202.2,247.7z"/>
	<path class="st1" d="M216.5,247.7c1.5,0,2.7-1.2,2.7-2.7c0-1.5-1.2-2.7-2.7-2.7c-1.5,0-2.7,1.2-2.7,2.7
		C213.8,246.5,215,247.7,216.5,247.7z"/>
	<path class="st1" d="M230.7,247.7c1.5,0,2.7-1.2,2.7-2.7c0-1.5-1.2-2.7-2.7-2.7c-1.5,0-2.7,1.2-2.7,2.7
		C228,246.5,229.2,247.7,230.7,247.7z"/>
	<path class="st1" d="M245,247.7c1.5,0,2.7-1.2,2.7-2.7c0-1.5-1.2-2.7-2.7-2.7c-1.5,0-2.7,1.2-2.7,2.7
		C242.3,246.5,243.5,247.7,245,247.7z"/>
	<path class="st1" d="M259.2,247.7c1.5,0,2.7-1.2,2.7-2.7c0-1.5-1.2-2.7-2.7-2.7c-1.5,0-2.7,1.2-2.7,2.7
		C256.5,246.5,257.7,247.7,259.2,247.7z"/>
	<path class="st1" d="M273.5,247.7c1.5,0,2.7-1.2,2.7-2.7c0-1.5-1.2-2.7-2.7-2.7c-1.5,0-2.7,1.2-2.7,2.7
		C270.8,246.5,272,247.7,273.5,247.7z"/>
	<path class="st1" d="M9.8,261.9c1.5,0,2.7-1.2,2.7-2.7s-1.2-2.7-2.7-2.7c-1.5,0-2.7,1.2-2.7,2.7S8.3,261.9,9.8,261.9z"/>
	<path class="st1" d="M24.1,261.9c1.5,0,2.7-1.2,2.7-2.7c0-1.5-1.2-2.7-2.7-2.7c-1.5,0-2.7,1.2-2.7,2.7
		C21.4,260.7,22.6,261.9,24.1,261.9z"/>
	<path class="st1" d="M38.3,261.9c1.5,0,2.7-1.2,2.7-2.7c0-1.5-1.2-2.7-2.7-2.7c-1.5,0-2.7,1.2-2.7,2.7
		C35.6,260.7,36.8,261.9,38.3,261.9z"/>
	<path class="st1" d="M52.6,261.9c1.5,0,2.7-1.2,2.7-2.7s-1.2-2.7-2.7-2.7c-1.5,0-2.7,1.2-2.7,2.7S51.1,261.9,52.6,261.9z"/>
	<path class="st1" d="M66.8,261.9c1.5,0,2.7-1.2,2.7-2.7c0-1.5-1.2-2.7-2.7-2.7c-1.5,0-2.7,1.2-2.7,2.7
		C64.1,260.7,65.3,261.9,66.8,261.9z"/>
	<path class="st1" d="M81.1,261.9c1.5,0,2.7-1.2,2.7-2.7s-1.2-2.7-2.7-2.7c-1.5,0-2.7,1.2-2.7,2.7S79.6,261.9,81.1,261.9z"/>
	<path class="st1" d="M95.3,261.9c1.5,0,2.7-1.2,2.7-2.7s-1.2-2.7-2.7-2.7c-1.5,0-2.7,1.2-2.7,2.7S93.8,261.9,95.3,261.9z"/>
	<path class="st1" d="M109.6,261.9c1.5,0,2.7-1.2,2.7-2.7c0-1.5-1.2-2.7-2.7-2.7c-1.5,0-2.7,1.2-2.7,2.7
		C106.9,260.7,108.1,261.9,109.6,261.9z"/>
	<path class="st1" d="M123.8,261.9c1.5,0,2.7-1.2,2.7-2.7c0-1.5-1.2-2.7-2.7-2.7c-1.5,0-2.7,1.2-2.7,2.7
		C121.1,260.7,122.3,261.9,123.8,261.9z"/>
	<path class="st1" d="M138.1,261.9c1.5,0,2.7-1.2,2.7-2.7c0-1.5-1.2-2.7-2.7-2.7c-1.5,0-2.7,1.2-2.7,2.7
		C135.4,260.7,136.6,261.9,138.1,261.9z"/>
	<path class="st1" d="M152.3,261.9c1.5,0,2.7-1.2,2.7-2.7c0-1.5-1.2-2.7-2.7-2.7c-1.5,0-2.7,1.2-2.7,2.7
		C149.6,260.7,150.8,261.9,152.3,261.9z"/>
	<path class="st1" d="M166.6,261.9c1.5,0,2.7-1.2,2.7-2.7c0-1.5-1.2-2.7-2.7-2.7c-1.5,0-2.7,1.2-2.7,2.7
		C163.9,260.7,165.1,261.9,166.6,261.9z"/>
	<path class="st1" d="M180.8,261.9c1.5,0,2.7-1.2,2.7-2.7c0-1.5-1.2-2.7-2.7-2.7c-1.5,0-2.7,1.2-2.7,2.7
		C178.1,260.7,179.3,261.9,180.8,261.9z"/>
	<path class="st1" d="M195.1,261.9c1.5,0,2.7-1.2,2.7-2.7c0-1.5-1.2-2.7-2.7-2.7c-1.5,0-2.7,1.2-2.7,2.7
		C192.4,260.7,193.6,261.9,195.1,261.9z"/>
	<path class="st1" d="M209.3,261.9c1.5,0,2.7-1.2,2.7-2.7c0-1.5-1.2-2.7-2.7-2.7c-1.5,0-2.7,1.2-2.7,2.7
		C206.6,260.7,207.9,261.9,209.3,261.9z"/>
	<path class="st1" d="M223.6,261.9c1.5,0,2.7-1.2,2.7-2.7c0-1.5-1.2-2.7-2.7-2.7c-1.5,0-2.7,1.2-2.7,2.7
		C220.9,260.7,222.1,261.9,223.6,261.9z"/>
	<path class="st1" d="M237.8,261.9c1.5,0,2.7-1.2,2.7-2.7c0-1.5-1.2-2.7-2.7-2.7c-1.5,0-2.7,1.2-2.7,2.7
		C235.1,260.7,236.4,261.9,237.8,261.9z"/>
	<path class="st1" d="M252.1,261.9c1.5,0,2.7-1.2,2.7-2.7c0-1.5-1.2-2.7-2.7-2.7c-1.5,0-2.7,1.2-2.7,2.7
		C249.4,260.7,250.6,261.9,252.1,261.9z"/>
	<path class="st1" d="M266.3,261.9c1.5,0,2.7-1.2,2.7-2.7c0-1.5-1.2-2.7-2.7-2.7c-1.5,0-2.7,1.2-2.7,2.7
		C263.6,260.7,264.9,261.9,266.3,261.9z"/>
	<path class="st1" d="M280.6,261.9c1.5,0,2.7-1.2,2.7-2.7c0-1.5-1.2-2.7-2.7-2.7c-1.5,0-2.7,1.2-2.7,2.7
		C277.9,260.7,279.1,261.9,280.6,261.9z"/>
	<path class="st1" d="M2.7,276.2c1.5,0,2.7-1.2,2.7-2.7c0-1.5-1.2-2.7-2.7-2.7c-1.5,0-2.7,1.2-2.7,2.7C0,275,1.2,276.2,2.7,276.2z"
		/>
	<path class="st1" d="M17,276.2c1.5,0,2.7-1.2,2.7-2.7s-1.2-2.7-2.7-2.7c-1.5,0-2.7,1.2-2.7,2.7S15.5,276.2,17,276.2z"/>
	<path class="st1" d="M31.2,276.2c1.5,0,2.7-1.2,2.7-2.7s-1.2-2.7-2.7-2.7c-1.5,0-2.7,1.2-2.7,2.7S29.7,276.2,31.2,276.2z"/>
	<path class="st1" d="M45.5,276.2c1.5,0,2.7-1.2,2.7-2.7s-1.2-2.7-2.7-2.7c-1.5,0-2.7,1.2-2.7,2.7C42.8,275,44,276.2,45.5,276.2z"/>
	<path class="st1" d="M59.7,276.2c1.5,0,2.7-1.2,2.7-2.7s-1.2-2.7-2.7-2.7c-1.5,0-2.7,1.2-2.7,2.7S58.2,276.2,59.7,276.2z"/>
	<path class="st1" d="M74,276.2c1.5,0,2.7-1.2,2.7-2.7s-1.2-2.7-2.7-2.7c-1.5,0-2.7,1.2-2.7,2.7C71.3,275,72.5,276.2,74,276.2z"/>
	<path class="st1" d="M88.2,276.2c1.5,0,2.7-1.2,2.7-2.7s-1.2-2.7-2.7-2.7c-1.5,0-2.7,1.2-2.7,2.7C85.5,275,86.7,276.2,88.2,276.2z"
		/>
	<path class="st1" d="M102.5,276.2c1.5,0,2.7-1.2,2.7-2.7s-1.2-2.7-2.7-2.7c-1.5,0-2.7,1.2-2.7,2.7S101,276.2,102.5,276.2z"/>
	<path class="st1" d="M116.7,276.2c1.5,0,2.7-1.2,2.7-2.7s-1.2-2.7-2.7-2.7c-1.5,0-2.7,1.2-2.7,2.7S115.2,276.2,116.7,276.2z"/>
	<path class="st1" d="M131,276.2c1.5,0,2.7-1.2,2.7-2.7s-1.2-2.7-2.7-2.7c-1.5,0-2.7,1.2-2.7,2.7S129.5,276.2,131,276.2z"/>
	<path class="st1" d="M145.2,276.2c1.5,0,2.7-1.2,2.7-2.7s-1.2-2.7-2.7-2.7c-1.5,0-2.7,1.2-2.7,2.7
		C142.5,275,143.7,276.2,145.2,276.2z"/>
	<path class="st1" d="M159.5,276.2c1.5,0,2.7-1.2,2.7-2.7c0-1.5-1.2-2.7-2.7-2.7c-1.5,0-2.7,1.2-2.7,2.7S158,276.2,159.5,276.2z"/>
	<path class="st1" d="M173.7,276.2c1.5,0,2.7-1.2,2.7-2.7c0-1.5-1.2-2.7-2.7-2.7c-1.5,0-2.7,1.2-2.7,2.7
		C171,275,172.2,276.2,173.7,276.2z"/>
	<path class="st1" d="M188,276.2c1.5,0,2.7-1.2,2.7-2.7s-1.2-2.7-2.7-2.7c-1.5,0-2.7,1.2-2.7,2.7S186.5,276.2,188,276.2z"/>
	<path class="st1" d="M202.2,276.2c1.5,0,2.7-1.2,2.7-2.7c0-1.5-1.2-2.7-2.7-2.7c-1.5,0-2.7,1.2-2.7,2.7S200.7,276.2,202.2,276.2z"
		/>
	<path class="st1" d="M216.5,276.2c1.5,0,2.7-1.2,2.7-2.7s-1.2-2.7-2.7-2.7c-1.5,0-2.7,1.2-2.7,2.7S215,276.2,216.5,276.2z"/>
	<path class="st1" d="M230.7,276.2c1.5,0,2.7-1.2,2.7-2.7c0-1.5-1.2-2.7-2.7-2.7c-1.5,0-2.7,1.2-2.7,2.7S229.2,276.2,230.7,276.2z"
		/>
	<path class="st1" d="M245,276.2c1.5,0,2.7-1.2,2.7-2.7c0-1.5-1.2-2.7-2.7-2.7c-1.5,0-2.7,1.2-2.7,2.7S243.5,276.2,245,276.2z"/>
	<path class="st1" d="M259.2,276.2c1.5,0,2.7-1.2,2.7-2.7s-1.2-2.7-2.7-2.7c-1.5,0-2.7,1.2-2.7,2.7S257.7,276.2,259.2,276.2z"/>
	<path class="st1" d="M273.5,276.2c1.5,0,2.7-1.2,2.7-2.7c0-1.5-1.2-2.7-2.7-2.7c-1.5,0-2.7,1.2-2.7,2.7S272,276.2,273.5,276.2z"/>
	<path class="st1" d="M9.8,290.4c1.5,0,2.7-1.2,2.7-2.7c0-1.5-1.2-2.7-2.7-2.7c-1.5,0-2.7,1.2-2.7,2.7
		C7.1,289.2,8.3,290.4,9.8,290.4z"/>
	<path class="st1" d="M24.1,290.4c1.5,0,2.7-1.2,2.7-2.7c0-1.5-1.2-2.7-2.7-2.7c-1.5,0-2.7,1.2-2.7,2.7
		C21.4,289.2,22.6,290.4,24.1,290.4z"/>
	<path class="st1" d="M38.3,290.4c1.5,0,2.7-1.2,2.7-2.7c0-1.5-1.2-2.7-2.7-2.7c-1.5,0-2.7,1.2-2.7,2.7
		C35.6,289.2,36.8,290.4,38.3,290.4z"/>
	<path class="st1" d="M52.6,290.4c1.5,0,2.7-1.2,2.7-2.7c0-1.5-1.2-2.7-2.7-2.7c-1.5,0-2.7,1.2-2.7,2.7
		C49.9,289.2,51.1,290.4,52.6,290.4z"/>
	<path class="st1" d="M66.8,290.4c1.5,0,2.7-1.2,2.7-2.7c0-1.5-1.2-2.7-2.7-2.7c-1.5,0-2.7,1.2-2.7,2.7
		C64.1,289.2,65.3,290.4,66.8,290.4z"/>
	<path class="st1" d="M81.1,290.4c1.5,0,2.7-1.2,2.7-2.7c0-1.5-1.2-2.7-2.7-2.7c-1.5,0-2.7,1.2-2.7,2.7
		C78.4,289.2,79.6,290.4,81.1,290.4z"/>
	<path class="st1" d="M95.3,290.4c1.5,0,2.7-1.2,2.7-2.7c0-1.5-1.2-2.7-2.7-2.7c-1.5,0-2.7,1.2-2.7,2.7
		C92.6,289.2,93.8,290.4,95.3,290.4z"/>
	<path class="st1" d="M109.6,290.4c1.5,0,2.7-1.2,2.7-2.7c0-1.5-1.2-2.7-2.7-2.7c-1.5,0-2.7,1.2-2.7,2.7
		C106.9,289.2,108.1,290.4,109.6,290.4z"/>
	<path class="st1" d="M123.8,290.4c1.5,0,2.7-1.2,2.7-2.7c0-1.5-1.2-2.7-2.7-2.7c-1.5,0-2.7,1.2-2.7,2.7
		C121.1,289.2,122.3,290.4,123.8,290.4z"/>
	<path class="st1" d="M138.1,290.4c1.5,0,2.7-1.2,2.7-2.7c0-1.5-1.2-2.7-2.7-2.7c-1.5,0-2.7,1.2-2.7,2.7
		C135.4,289.2,136.6,290.4,138.1,290.4z"/>
	<path class="st1" d="M152.3,290.4c1.5,0,2.7-1.2,2.7-2.7c0-1.5-1.2-2.7-2.7-2.7c-1.5,0-2.7,1.2-2.7,2.7
		C149.6,289.2,150.8,290.4,152.3,290.4z"/>
	<path class="st1" d="M166.6,290.4c1.5,0,2.7-1.2,2.7-2.7c0-1.5-1.2-2.7-2.7-2.7c-1.5,0-2.7,1.2-2.7,2.7
		C163.9,289.2,165.1,290.4,166.6,290.4z"/>
	<path class="st1" d="M180.8,290.4c1.5,0,2.7-1.2,2.7-2.7c0-1.5-1.2-2.7-2.7-2.7c-1.5,0-2.7,1.2-2.7,2.7
		C178.1,289.2,179.3,290.4,180.8,290.4z"/>
	<path class="st1" d="M195.1,290.4c1.5,0,2.7-1.2,2.7-2.7s-1.2-2.7-2.7-2.7c-1.5,0-2.7,1.2-2.7,2.7
		C192.4,289.2,193.6,290.4,195.1,290.4z"/>
	<path class="st1" d="M209.3,290.4c1.5,0,2.7-1.2,2.7-2.7c0-1.5-1.2-2.7-2.7-2.7c-1.5,0-2.7,1.2-2.7,2.7
		C206.6,289.2,207.9,290.4,209.3,290.4z"/>
	<path class="st1" d="M223.6,290.4c1.5,0,2.7-1.2,2.7-2.7c0-1.5-1.2-2.7-2.7-2.7c-1.5,0-2.7,1.2-2.7,2.7
		C220.9,289.2,222.1,290.4,223.6,290.4z"/>
	<path class="st1" d="M237.8,290.4c1.5,0,2.7-1.2,2.7-2.7c0-1.5-1.2-2.7-2.7-2.7c-1.5,0-2.7,1.2-2.7,2.7
		C235.1,289.2,236.4,290.4,237.8,290.4z"/>
	<path class="st1" d="M252.1,290.4c1.5,0,2.7-1.2,2.7-2.7c0-1.5-1.2-2.7-2.7-2.7c-1.5,0-2.7,1.2-2.7,2.7
		C249.4,289.2,250.6,290.4,252.1,290.4z"/>
	<path class="st1" d="M266.3,290.4c1.5,0,2.7-1.2,2.7-2.7c0-1.5-1.2-2.7-2.7-2.7c-1.5,0-2.7,1.2-2.7,2.7
		C263.6,289.2,264.9,290.4,266.3,290.4z"/>
	<path class="st1" d="M280.6,290.4c1.5,0,2.7-1.2,2.7-2.7c0-1.5-1.2-2.7-2.7-2.7c-1.5,0-2.7,1.2-2.7,2.7
		C277.9,289.2,279.1,290.4,280.6,290.4z"/>
</g>
</svg>
