<?xml version="1.0" encoding="utf-8"?>
<!-- Generator: Adobe Illustrator 22.1.0, SVG Export Plug-In . SVG Version: 6.00 Build 0)  -->
<svg version="1.1" id="Layer_1" xmlns="http://www.w3.org/2000/svg" xmlns:xlink="http://www.w3.org/1999/xlink" x="0px" y="0px"
	 viewBox="0 0 283.3 290.4" style="enable-background:new 0 0 283.3 290.4;" xml:space="preserve">
<style type="text/css">
	.st0{fill:#F7645C;}
	.st1{fill:#FFA748;}
	.st2{fill:#22B9FC;enable-background:new    ;}
</style>
<title>pattern</title>
<path class="st0" d="M163.7,127.9l3-4.3c0.5-0.7,0-1.6-0.8-1.6l-5.2-0.5c-0.8-0.1-1.4,0.8-1,1.5l2.2,4.8
	C162.2,128.5,163.2,128.6,163.7,127.9z"/>
<path class="st0" d="M211.1,137.5l-4.4-2.9c-0.7-0.4-1.6,0-1.6,0.8l-0.3,5.2c0,0.8,0.8,1.3,1.5,1l4.7-2.4
	C211.7,138.9,211.8,137.9,211.1,137.5z"/>
<path class="st0" d="M129.8,84.5l4.3,3c0.7,0.5,1.6,0,1.6-0.8l0.4-5.2c0.1-0.8-0.8-1.4-1.5-1l-4.7,2.3C129.2,83,129.1,84,129.8,84.5
	z"/>
<path class="st0" d="M283.2,282.4l-2.4-4.7c-0.4-0.7-1.4-0.8-1.8-0.1l-2.9,4.4c-0.4,0.7,0,1.6,0.8,1.6l5.2,0.3
	C283,284,283.5,283.1,283.2,282.4z"/>
<path class="st0" d="M278.7,75.4l0.7-5.2c0.1-0.8-0.7-1.4-1.4-1.1l-4.8,2c-0.7,0.3-0.9,1.3-0.2,1.8l4.2,3.2
	C277.7,76.6,278.6,76.2,278.7,75.4z"/>
<path class="st0" d="M207.3,98.5l-0.1-5.2c0-0.8-0.9-1.3-1.6-0.9l-4.5,2.7c-0.7,0.4-0.7,1.4,0,1.8l4.6,2.5
	C206.5,99.9,207.4,99.3,207.3,98.5z"/>
<path class="st0" d="M239.3,271.3l-3.3,4.1c-0.5,0.6-0.1,1.6,0.6,1.7l5.2,0.8c0.8,0.1,1.4-0.6,1.1-1.4l-1.9-4.9
	C240.8,270.8,239.8,270.7,239.3,271.3z"/>
<path class="st0" d="M174.8,18.6l3.8-3.6c0.6-0.5,0.4-1.5-0.4-1.8l-5-1.5c-0.8-0.2-1.5,0.4-1.3,1.2l1.2,5.1
	C173.3,18.8,174.2,19.1,174.8,18.6z"/>
<path class="st0" d="M234.8,193.6l-4.8-2c-0.7-0.3-1.5,0.3-1.4,1.1l0.7,5.2c0.1,0.8,1,1.2,1.7,0.7l4.2-3.2
	C235.7,194.9,235.6,193.9,234.8,193.6z"/>
<path class="st0" d="M65.5,204.1l0.6,5.2c0.1,0.8,1,1.2,1.6,0.7l4.2-3.1c0.6-0.5,0.5-1.5-0.2-1.8l-4.8-2.1
	C66.2,202.7,65.4,203.3,65.5,204.1z"/>
<path class="st0" d="M125.9,169.3l-2.7-4.5c-0.4-0.7-1.4-0.7-1.8,0l-2.5,4.6c-0.4,0.7,0.1,1.6,0.9,1.5l5.2-0.1
	C125.8,170.8,126.3,170,125.9,169.3z"/>
<path class="st0" d="M234.7,12.1l2.5-4.6c0.4-0.7-0.2-1.6-1-1.5l-5.2,0.2c-0.8,0-1.3,0.9-0.8,1.6l2.8,4.4
	C233.3,12.8,234.3,12.8,234.7,12.1z"/>
<path class="st0" d="M15.4,34.4l-3.3-4c-0.5-0.6-1.5-0.5-1.8,0.3l-1.8,4.9c-0.3,0.8,0.4,1.5,1.1,1.4l5.2-0.9
	C15.6,36,15.9,35.1,15.4,34.4z"/>
<path class="st0" d="M170.1,66.9l3.2,4.1c0.5,0.6,1.5,0.5,1.8-0.2l2-4.9c0.3-0.7-0.3-1.5-1.1-1.4l-5.2,0.7
	C170,65.3,169.6,66.2,170.1,66.9z"/>
<path class="st0" d="M76.8,20l1.4,5.1c0.2,0.8,1.2,1,1.7,0.5l3.7-3.7c0.6-0.6,0.3-1.5-0.5-1.7L78,18.7C77.2,18.5,76.5,19.2,76.8,20z
	"/>
<path class="st1" d="M116.8,121.6l-5.2,0c-0.8,0-1.3,0.9-0.9,1.6l2.6,4.6c0.4,0.7,1.4,0.7,1.8,0l2.6-4.5
	C118.1,122.5,117.6,121.6,116.8,121.6z"/>
<path class="st1" d="M168.4,166.6l-3.6,3.8c-0.5,0.6-0.2,1.5,0.5,1.7l5.1,1.2c0.8,0.2,1.5-0.6,1.2-1.3l-1.5-5
	C170,166.2,169,166,168.4,166.6z"/>
<path class="st1" d="M7.6,265.8l-5.2-0.4c-0.8-0.1-1.4,0.8-1,1.5l2.3,4.7c0.3,0.7,1.3,0.8,1.8,0.1l3-4.3
	C8.8,266.7,8.4,265.8,7.6,265.8z"/>
<path class="st1" d="M110.6,272.5l3.8,3.6c0.6,0.6,1.5,0.3,1.7-0.5l1.3-5.1c0.2-0.8-0.5-1.5-1.3-1.3l-5,1.4
	C110.3,271,110,271.9,110.6,272.5z"/>
<path class="st1" d="M106.4,213.5l-0.2,5.2c0,0.8,0.8,1.3,1.5,1l4.6-2.4c0.7-0.4,0.8-1.4,0.1-1.8l-4.4-2.8
	C107.4,212.3,106.5,212.7,106.4,213.5z"/>
<path class="st1" d="M61.3,103.7l-4.3-2.9c-0.7-0.4-1.6,0-1.6,0.8l-0.4,5.2c-0.1,0.8,0.8,1.4,1.5,1l4.7-2.3
	C61.8,105.1,61.9,104.1,61.3,103.7z"/>
<path class="st1" d="M200.5,211.9l-5.2-0.8c-0.8-0.1-1.4,0.7-1.1,1.4l1.9,4.9c0.3,0.7,1.3,0.9,1.8,0.3l3.3-4.1
	C201.7,212.9,201.3,212,200.5,211.9z"/>
<path class="st1" d="M30.1,278.8l-0.3,5.2c-0.1,0.8,0.8,1.4,1.5,1l4.7-2.3c0.7-0.4,0.8-1.4,0.1-1.8l-4.4-2.9
	C31,277.6,30.1,278,30.1,278.8z"/>
<path class="st1" d="M18.2,130.7l5.2,0.5c0.8,0.1,1.4-0.7,1-1.5l-2.2-4.8c-0.3-0.7-1.3-0.8-1.8-0.2l-3,4.3
	C16.9,129.8,17.4,130.7,18.2,130.7z"/>
<path class="st1" d="M136,37.8l2.7-4.5c0.4-0.7-0.1-1.6-0.9-1.6l-5.2-0.1c-0.8,0-1.3,0.9-0.9,1.5l2.6,4.6
	C134.6,38.5,135.6,38.5,136,37.8z"/>
<path class="st1" d="M194.3,278.8l5.2-1c0.8-0.1,1.1-1.1,0.6-1.7l-3.4-4c-0.5-0.6-1.5-0.4-1.8,0.3l-1.8,4.9
	C192.9,278.2,193.6,278.9,194.3,278.8z"/>
<path class="st1" d="M7.6,179.3l3.9-3.5c0.6-0.5,0.4-1.5-0.4-1.8l-5-1.6c-0.8-0.2-1.5,0.4-1.3,1.2l1.1,5.1
	C6,179.5,7,179.8,7.6,179.3z"/>
<path class="st1" d="M79.2,162.9l2.9-4.4c0.4-0.7,0-1.6-0.8-1.6l-5.2-0.3c-0.8,0-1.3,0.8-1,1.5l2.4,4.7
	C77.7,163.5,78.7,163.5,79.2,162.9z"/>
<path class="st1" d="M276.9,205.1l4.9-1.8c0.7-0.3,0.9-1.3,0.3-1.8l-4.1-3.3c-0.6-0.5-1.6-0.2-1.7,0.6l-0.9,5.2
	C275.4,204.8,276.1,205.4,276.9,205.1z"/>
<path class="st1" d="M205.6,40.3l4.9,1.8c0.8,0.3,1.5-0.4,1.4-1.2l-1-5.2c-0.1-0.8-1.1-1.1-1.7-0.6l-4,3.4
	C204.6,39.1,204.8,40,205.6,40.3z"/>
<path class="st2" d="M35.5,11.9l-0.3,5.2c0,0.8,0.8,1.4,1.5,1l4.7-2.3c0.7-0.4,0.8-1.4,0.1-1.8l-4.4-2.9
	C36.4,10.7,35.5,11.1,35.5,11.9z"/>
<path class="st2" d="M13.7,83.5l0.4-5.2c0.1-0.8-0.8-1.4-1.5-1l-4.7,2.3c-0.7,0.4-0.8,1.4-0.1,1.8l4.4,2.9
	C12.8,84.7,13.7,84.3,13.7,83.5z"/>
<path class="st2" d="M122.7,8.7l1-5.1c0.2-0.8-0.6-1.4-1.4-1.2l-5,1.7c-0.8,0.3-1,1.2-0.3,1.8l3.9,3.5
	C121.6,9.8,122.5,9.5,122.7,8.7z"/>
<path class="st2" d="M264,161.6l2.7,4.5c0.4,0.7,1.4,0.7,1.8,0l2.6-4.6c0.4-0.7-0.1-1.6-0.9-1.6l-5.2,0.1
	C264,160,263.6,160.9,264,161.6z"/>
<path class="st2" d="M269.3,240.7l3.8,3.6c0.6,0.6,1.5,0.3,1.7-0.5l1.3-5.1c0.2-0.8-0.5-1.5-1.3-1.3l-5,1.5
	C269,239.2,268.7,240.2,269.3,240.7z"/>
<path class="st2" d="M43.8,173.2l-4.6,2.4c-0.7,0.4-0.8,1.4-0.1,1.8l4.4,2.8c0.7,0.4,1.6,0,1.6-0.8l0.2-5.2
	C45.4,173.4,44.5,172.8,43.8,173.2z"/>
<path class="st2" d="M56.9,242.6l-1.2,5.1c-0.2,0.8,0.6,1.5,1.3,1.2l5-1.5c0.8-0.2,1-1.2,0.4-1.8l-3.8-3.6
	C58,241.6,57,241.9,56.9,242.6z"/>
<path class="st2" d="M259.2,119.5l3.4,4c0.5,0.6,1.5,0.4,1.8-0.3l1.7-5c0.3-0.8-0.4-1.5-1.2-1.4l-5.2,1
	C259,118,258.7,118.9,259.2,119.5z"/>
<path class="st2" d="M79.4,287.4l-0.8-5.2c-0.1-0.8-1.1-1.2-1.7-0.7l-4.1,3.3c-0.6,0.5-0.5,1.5,0.3,1.8l4.9,1.9
	C78.7,288.8,79.5,288.1,79.4,287.4z"/>
<path class="st2" d="M16.2,226.9l2.4-4.6c0.4-0.7-0.2-1.6-1-1.5l-5.2,0.2c-0.8,0-1.3,0.9-0.8,1.6l2.8,4.4
	C14.8,227.6,15.8,227.6,16.2,226.9z"/>
<path class="st2" d="M84.5,63.4l-5.2-0.2c-0.8,0-1.3,0.8-1,1.5l2.4,4.7c0.4,0.7,1.4,0.8,1.8,0.1l2.8-4.4
	C85.8,64.3,85.3,63.4,84.5,63.4z"/>
<path class="st2" d="M156.7,267.8l4.1-3.2c0.6-0.5,0.5-1.5-0.2-1.8l-4.9-2c-0.7-0.3-1.5,0.3-1.4,1.1l0.7,5.2
	C155.1,268,156,268.3,156.7,267.8z"/>
<path class="st2" d="M150,215.5l-1.1,5.1c-0.2,0.8,0.6,1.5,1.3,1.2l5-1.6c0.8-0.2,1-1.2,0.4-1.8l-3.9-3.5
	C151.1,214.4,150.1,214.7,150,215.5z"/>
<path class="st2" d="M238.1,68.8l-4.4-2.8c-0.7-0.4-1.6,0-1.6,0.8l-0.2,5.2c0,0.8,0.8,1.3,1.5,1l4.6-2.4
	C238.7,70.3,238.8,69.3,238.1,68.8z"/>
<path class="st2" d="M276.4,26.4l-1.8-4.9c-0.3-0.8-1.3-0.9-1.8-0.3l-3.4,4c-0.5,0.6-0.2,1.6,0.6,1.7l5.2,0.9
	C276.1,28,276.7,27.2,276.4,26.4z"/>
</svg>
