<?xml version="1.0" encoding="utf-8"?>
<!-- Generator: Adobe Illustrator 22.1.0, SVG Export Plug-In . SVG Version: 6.00 Build 0)  -->
<svg version="1.1" id="レイヤー_1" xmlns="http://www.w3.org/2000/svg" xmlns:xlink="http://www.w3.org/1999/xlink" x="0px"
	 y="0px" viewBox="0 0 157.2 157.2" style="enable-background:new 0 0 157.2 157.2;" xml:space="preserve">
<style type="text/css">
	.st0{fill:#FFAF57;}
	.st1{fill:#FFFFFF;}
	.st2{fill:#F98885;}
</style>
<title>avatar</title>
<rect x="-22.9" y="-16.4" class="st0" width="200" height="196"/>
<path class="st1" d="M77.8,64.9c-19,0-34.3,9-34.3,20.1c0,4.5,2.6,8.7,6.9,12.1c3.7-8,14.5-13.8,27.2-13.8s23.8,5.9,27.4,14.1
	c4.5-3.4,7.2-7.7,7.2-12.3C112.1,73.9,96.8,64.9,77.8,64.9z"/>
<ellipse transform="matrix(0.9209 -0.3898 0.3898 0.9209 -28.238 31.7904)" class="st1" cx="64.2" cy="85.5" rx="23" ry="17.3"/>
<ellipse transform="matrix(0.3898 -0.9209 0.9209 0.3898 -22.4499 137.0802)" class="st1" cx="92.2" cy="85.5" rx="17.3" ry="23"/>
<path class="st1" d="M47,71.2c-0.2,0-0.4-0.1-0.6-0.2c-0.1-0.1-13.2-7.8-28.7-4.2c-0.7,0.2-1.3-0.3-1.5-0.9
	c-0.2-0.7,0.3-1.3,0.9-1.5l0,0c16.5-3.8,30,4.2,30.5,4.6c0.6,0.4,0.8,1.1,0.4,1.7C47.8,71,47.4,71.2,47,71.2z"/>
<path class="st1" d="M12.4,80.1c-0.7,0-1.3-0.5-1.3-1.2c0-0.6,0.4-1.1,0.9-1.2c9.7-3.1,19.9-4.1,29.9-2.9c0.7,0.1,1.1,0.8,1,1.4
	c-0.1,0.7-0.8,1.1-1.4,1C31.9,76.1,22.1,77,12.8,80C12.7,80.1,12.6,80.1,12.4,80.1z"/>
<path class="st1" d="M109.4,71.2c-0.7,0-1.3-0.6-1.3-1.2c0-0.4,0.2-0.8,0.6-1.1c0.6-0.3,14-8.3,30.5-4.6c0.7,0.2,1.1,0.8,0.9,1.5
	s-0.8,1.1-1.5,0.9c-15.5-3.6-28.6,4.2-28.7,4.2C109.9,71.1,109.7,71.2,109.4,71.2z"/>
<path class="st1" d="M144,80.1c-0.1,0-0.3,0-0.4-0.1c-9.3-3-19.1-3.9-28.8-2.8c-0.7,0.1-1.3-0.3-1.4-1c-0.1-0.7,0.3-1.3,1-1.4
	c10.1-1.2,20.3-0.2,29.9,2.9c0.7,0.2,1,0.9,0.9,1.5C145,79.8,144.5,80.1,144,80.1L144,80.1z"/>
<path class="st2" d="M88.4,64.3c-1.8-1.7-5.5-2.9-9.8-2.9c-5.4,0-9.9,1.9-10.8,4.4c-0.7,1-0.8,2.3-0.3,3.4c0.1,0.2,0.2,0.4,0.4,0.6
	c0.3,0.7,1,1.2,2.5,1.6h0.1h0.1l5.2,4.3c1.8,1.3,4.3,1.3,6.1,0l5.2-4.2c1.6-0.4,2.4-1,2.7-1.6c0.1-0.2,0.3-0.4,0.4-0.6
	C90.8,67.6,90.1,65.7,88.4,64.3z"/>
</svg>
