<?xml version="1.0" encoding="utf-8"?>
<!-- Generator: Adobe Illustrator 22.1.0, SVG Export Plug-In . SVG Version: 6.00 Build 0)  -->
<svg version="1.1" id="レイヤー_1" xmlns="http://www.w3.org/2000/svg" xmlns:xlink="http://www.w3.org/1999/xlink" x="0px"
	 y="0px" viewBox="0 0 206.7 49" style="enable-background:new 0 0 206.7 49;" xml:space="preserve">
<style type="text/css">
	.st0{fill:#FFFFFF;}
</style>
<g>
	<path class="st0" d="M19.6,6.4c0.9,0,1.8,0.8,2.9,2.3c1,1.6,1.6,2.8,1.6,3.8S23.9,14,23.5,14c-0.2,0-0.6-0.1-1.2-0.2
		c-0.6-0.1-1.1-0.2-1.6-0.2c-1.6,0-3.4,1-5.5,3s-3.9,4.4-5.4,7.2S7.6,29,7.6,31.1c0,1,0.2,1.7,0.5,2.2C8.4,33.8,9,34,9.8,34
		c2.2,0,4.4-0.3,6.6-1s4.1-1.3,5.5-2s2.3-1,2.5-1s0.4,0.2,0.6,0.5c0.2,0.4,0.3,0.8,0.3,1.3c0,1.1-0.8,2.3-2.5,3.8s-3.7,2.7-6.1,3.7
		s-4.6,1.6-6.5,1.6s-4-1.2-6.1-3.5c-2.2-2.4-3.2-4.6-3.2-6.7c0-3,1-6.4,2.9-10.2s4.4-7.1,7.4-9.9S16.8,6.4,19.6,6.4z"/>
	<path class="st0" d="M48.1,27.7c0.6,0.5,0.8,1,0.8,1.4s-0.2,1.3-0.6,2.5c-0.4,1.3-0.6,2.3-0.8,3c-0.1,0.7-0.2,1.3-0.3,1.7
		s-0.1,0.7-0.2,1c0,0.2-0.1,0.5-0.2,0.9c-0.1,0.3-0.1,0.6-0.2,0.8c0,0.2-0.1,0.4-0.2,0.7c-0.1,0.3-0.2,0.5-0.3,0.6s-0.2,0.3-0.3,0.4
		c-0.2,0.3-0.5,0.4-0.9,0.4s-1-0.4-1.6-1.3c-0.6-0.9-1.1-1.9-1.4-3.2c-3,3-5.4,4.5-7.4,4.5c-1.4,0-2.8-0.7-4.4-2.2s-2.4-3-2.4-4.5
		s0.7-3.6,2-6.4c1.4-2.8,3.2-5.3,5.5-7.7s4.7-3.5,6.9-3.5c1.3,0,2.8,0.8,4.6,2.3c1.7,1.5,2.6,2.9,2.6,4.2C49.5,24.5,49,26,48.1,27.7
		z M34.4,35.1c1.3,0,2.9-0.9,5-2.6c2.1-1.7,3.4-3.9,3.9-6.5c0-0.4,0.3-0.6,0.8-0.7c-0.1-1.8-0.4-2.7-0.9-2.7c-1.3,0-2.7,0.8-4.2,2.4
		s-2.8,3.4-3.8,5.2c-1,1.9-1.5,3.2-1.5,4.1c0,0.3,0,0.4,0.1,0.5C33.8,35.1,34,35.1,34.4,35.1z"/>
	<path class="st0" d="M62.6,25.9c-0.5,1.5-1.1,3.4-1.8,5.7s-1.1,3.5-1.1,3.7c0,0.1,0.3,0.2,0.8,0.2s1.7-0.4,3.7-1.1
		c1.9-0.7,3.1-1.1,3.4-1.1c0.8,0,1.2,0.5,1.2,1.6s-1.1,2.3-3.2,3.8s-4.3,2.2-6.6,2.2c-1,0-2.2-0.5-3.6-1.6c-1.4-1.1-2.1-2.2-2.1-3.3
		c0-0.9,0.5-2.9,1.4-6c1-3,1.6-5.1,2-6.2c-1.2,0.3-2.2,0.5-2.8,0.5s-1.3-0.4-2-1.3s-1-1.7-1-2.5c0-1,2.4-1.9,7.3-2.5
		c0.6-2.9,0.9-5.4,0.9-7.6c0-0.9,0.5-1.4,1.4-1.4c0.8,0,1.9,0.5,3.1,1.5c1.3,1,1.9,2,1.9,2.9s-0.2,2.3-0.6,4
		c1.5-0.1,2.7-0.1,3.4-0.1c2.4,0,3.5,0.5,3.5,1.6c0,0.7-0.7,1.3-2.1,1.8s-3.5,1-6.3,1.6C63.4,23.2,63.1,24.4,62.6,25.9z"/>
	<path class="st0" d="M81.6,40.6L81.6,40.6c-0.8,0-1.7-0.7-2.6-2c-0.9-1.3-1.5-2.5-1.5-3.4c0-1,1.1-5.3,3.3-12.8
		C83,15,84.1,10.2,84.2,8.1c0.1-1.3,0.6-1.9,1.5-1.8c0.8,0,1.7,0.8,2.6,2.3c1,1.5,1.5,3,1.4,4.4c0,0.8-0.5,2.9-1.5,6.2
		c2.7-3.3,5.3-6.1,7.6-8.3c2.4-2.2,3.9-3.3,4.7-3.3c0.8,0,1.7,0.5,2.5,1.2c0.8,0.7,1.2,1.4,1.2,1.9s-0.9,1.5-2.5,2.9
		s-3.7,3.3-6.1,5.5c-2.5,2.2-4.4,4.3-5.8,6.3c-0.1,2.4,1.2,5,3.9,7.5c0.8,0.7,1.9,1.6,3.3,2.3c1.4,0.9,2.4,1.5,3.2,2.1
		c0.8,0.6,1.2,1.1,1.1,1.7c-0.1,1.6-1.2,2.4-3.5,2.3s-4.7-1.1-7.2-3.1c-2.5-1.9-4.4-4.5-5.5-7.5c-0.9,2.3-1.5,3.9-1.7,5
		s-0.4,1.8-0.5,2.1C83,38,83,38.3,82.9,38.5c-0.1,0.2-0.1,0.4-0.2,0.7c-0.1,0.3-0.1,0.4-0.2,0.6c-0.1,0.1-0.1,0.3-0.2,0.4
		C81.9,40.5,81.8,40.6,81.6,40.6z"/>
	<path class="st0" d="M122.7,17.3c1.6,0.2,3,1,4.1,2.6c1,1.6,1.6,3.2,1.4,4.9c-0.3,2.7-0.9,5.4-2.1,8.2c-1.2,2.8-2.3,4.9-3.4,6.4
		c-1.1,1.5-2.3,2.2-3.3,2.1c-1-0.1-1.5-0.9-1.4-2.3c0.1-1.1,0.8-3.3,2.2-6.6c1.1-2.7,1.7-4.8,1.8-6c0.1-1.2,0-1.8-0.3-1.8
		c-0.4,0-0.8,0.1-1.3,0.5c-0.4,0.4-0.8,0.7-1.1,1c-0.3,0.3-0.6,0.6-1,1.1c-0.3,0.5-0.7,0.8-0.9,1.2s-0.6,0.8-1,1.4
		c-0.5,0.6-0.8,1-1,1.4s-0.6,0.8-0.9,1.4c-3.4,5.2-6,7.7-7.7,7.5c-0.7-0.1-1.4-0.7-2.3-1.9c-0.9-1.2-1.3-2.1-1.3-2.6
		c0-0.3,0.3-1.1,0.9-2.1c0.6-1,1-1.9,1.2-2.5s0.5-1.3,0.7-1.9c0.2-0.7,0.4-1.4,0.6-2.2c0.2-0.8,0.3-1.4,0.4-1.9
		c0-0.4,0.2-1.1,0.4-2.1c0.7-4.1,1.1-6.2,1.4-6.7c0.2-0.4,0.5-0.7,0.8-0.6c1.2,0.1,2.2,0.7,3.2,1.8s1.4,2,1.3,2.8
		c-0.2,1.9-1,4.6-2.3,8.2c2.3-3.4,4.5-6.1,6.4-8.2C120,18.3,121.6,17.2,122.7,17.3z"/>
	<path class="st0" d="M134.2,22c2.4-3.5,4.8-5.3,7.2-5.3s4.4,0.8,6,2.5s2.4,3.7,2.4,6.1s-0.6,4.8-1.7,7.2c-1.1,2.4-2.7,4.5-4.8,6.1
		c-2,1.6-4.2,2.4-6.5,2.4c-1.7,0-3.2-0.8-4.5-2.3s-1.9-3.4-1.9-5.6C130.5,29.2,131.8,25.5,134.2,22z M141.8,31.7
		c1.3-2.3,1.9-4.4,1.9-6.5c0-2-0.3-3.4-0.8-4.1c-1.3,0.8-2.7,2.4-4,4.9s-2,4.7-2,6.6c0,1.9,0.2,3.1,0.6,3.6
		C139.1,35.5,140.6,34,141.8,31.7z"/>
	<path class="st0" d="M180.4,17.5c0.9,0.1,1.8,0.4,2.8,1.1c1.1,0.7,1.5,1.3,1.5,2c0,0.7-0.7,2.9-2.1,6.6c-1.4,3.7-3.2,7-5.7,9.8
		c-2.5,2.8-4.3,4.2-5.4,4.1c-0.4,0-1.1-0.4-1.9-1s-1.4-1.4-1.8-2.2c-0.6-1.3-0.6-5.2-0.2-11.3c-1.7,4.3-3.4,7.7-5.3,10.2
		c-1.9,2.5-3.4,3.7-4.5,3.6c-0.5,0-1.2-0.4-1.9-1c-0.9-0.7-1.4-1.4-1.6-2c-0.6-1.7-1.1-5-1.3-9.8c-0.3-4.8-0.3-8-0.2-9.8
		c0.1-1.3,0.5-1.9,1.4-1.8c1.2,0.1,2.3,0.9,3.5,2.4c1.2,1.5,1.7,2.7,1.7,3.5c-0.3,4.6-0.6,8.2-0.6,10.9c1.4-1.8,2.7-4.1,3.9-7
		c1.2-2.8,2.1-5,3-6.6c0.7-1.7,1.5-2.4,2.2-2.4c1.4,0.1,2.6,0.9,4,2.3c1.2,1.4,1.8,2.8,1.7,4.2c0,0.6-0.2,1.9-0.6,3.9
		c-0.3,2-0.5,3.5-0.6,4.5c-0.1,1,0,1.8,0,2.5c1.1-0.9,2.1-2.5,3-4.4s1.6-3.8,2.1-5.6C178.6,19.7,179.5,17.5,180.4,17.5z"/>
	<path class="st0" d="M197.7,16.8c1.2,0,2.4,0.7,3.5,2.1c1.2,1.4,1.7,2.7,1.7,3.8c0,0.8-0.3,1.1-1,1.1c-0.4,0-0.9-0.1-1.7-0.4
		c-0.7-0.3-1.5-0.4-2.2-0.4s-1.8,0.3-3.3,0.8c-1.4,0.5-2.1,1.2-2.1,2c0,0.3,0.4,0.8,1.3,1.4c0.8,0.6,1.8,1.2,2.8,1.8
		c1,0.6,1.9,1.5,2.8,2.6c0.8,1.1,1.3,2.3,1.3,3.6s-1,2.6-2.8,3.9c-1.9,1.3-4.1,2-6.7,2s-4.7-0.6-6.6-1.7c-1.8-1.2-2.7-2.4-2.7-3.6
		c0-1.2,0.5-1.8,1.5-1.8c0.4,0,0.9,0.2,1.5,0.5c1.6,0.9,3.5,1.4,5.9,1.4c2.3,0,3.5-0.3,3.5-0.9c0-0.6-0.4-1.3-1.3-2.1
		c-0.9-0.8-1.9-1.5-2.9-2.1s-2-1.5-2.9-2.4c-0.9-1-1.3-1.9-1.3-2.8c0-1.7,1.5-3.5,4.6-5.5C193.5,17.8,196,16.8,197.7,16.8z"/>
</g>
</svg>
